<svg width="641" height="418" viewBox="0 0 641 418" fill="none" xmlns="http://www.w3.org/2000/svg">
<g style="mix-blend-mode:multiply">
<circle cx="209.565" cy="144.127" r="144.127" fill="#FFCA3A" fill-opacity="0.6"/>
<path d="M154.153 57.6167H151.26C151.207 57.2425 151.099 56.9101 150.936 56.6195C150.773 56.3245 150.564 56.0736 150.309 55.8667C150.054 55.6597 149.759 55.5012 149.424 55.3912C149.094 55.2811 148.735 55.2261 148.348 55.2261C147.648 55.2261 147.038 55.4 146.518 55.7478C145.999 56.0912 145.596 56.5931 145.31 57.2535C145.023 57.9095 144.88 58.7064 144.88 59.6442C144.88 60.6084 145.023 61.4185 145.31 62.0745C145.6 62.7305 146.005 63.2258 146.525 63.5604C147.044 63.895 147.645 64.0623 148.328 64.0623C148.711 64.0623 149.065 64.0117 149.391 63.9104C149.721 63.8091 150.014 63.6617 150.269 63.4679C150.525 63.2698 150.736 63.0299 150.903 62.7481C151.075 62.4663 151.194 62.1449 151.26 61.7839L154.153 61.7971C154.078 62.4179 153.891 63.0167 153.591 63.5934C153.296 64.1658 152.898 64.6787 152.396 65.1322C151.898 65.5812 151.304 65.9379 150.613 66.202C149.926 66.4618 149.149 66.5917 148.281 66.5917C147.075 66.5917 145.996 66.3187 145.046 65.7727C144.099 65.2268 143.35 64.4365 142.8 63.4019C142.254 62.3673 141.981 61.1147 141.981 59.6442C141.981 58.1693 142.259 56.9145 142.813 55.8799C143.368 54.8452 144.121 54.0571 145.072 53.5156C146.023 52.9697 147.093 52.6967 148.281 52.6967C149.065 52.6967 149.792 52.8068 150.461 53.0269C151.134 53.247 151.731 53.5684 152.251 53.9911C152.77 54.4094 153.193 54.9223 153.519 55.5299C153.849 56.1374 154.06 56.8331 154.153 57.6167ZM160.733 66.6049C159.708 66.6049 158.82 66.3869 158.072 65.9511C157.328 65.5108 156.753 64.8988 156.348 64.1151C155.943 63.327 155.741 62.4135 155.741 61.3744C155.741 60.3266 155.943 59.4108 156.348 58.6272C156.753 57.8391 157.328 57.2271 158.072 56.7912C158.82 56.351 159.708 56.1308 160.733 56.1308C161.759 56.1308 162.644 56.351 163.388 56.7912C164.137 57.2271 164.713 57.8391 165.119 58.6272C165.524 59.4108 165.726 60.3266 165.726 61.3744C165.726 62.4135 165.524 63.327 165.119 64.1151C164.713 64.8988 164.137 65.5108 163.388 65.9511C162.644 66.3869 161.759 66.6049 160.733 66.6049ZM160.747 64.4255C161.213 64.4255 161.603 64.2934 161.916 64.0293C162.228 63.7607 162.464 63.3953 162.622 62.933C162.785 62.4707 162.867 61.9446 162.867 61.3546C162.867 60.7647 162.785 60.2385 162.622 59.7763C162.464 59.314 162.228 58.9486 161.916 58.68C161.603 58.4114 161.213 58.2771 160.747 58.2771C160.276 58.2771 159.879 58.4114 159.558 58.68C159.241 58.9486 159.001 59.314 158.838 59.7763C158.68 60.2385 158.6 60.7647 158.6 61.3546C158.6 61.9446 158.68 62.4707 158.838 62.933C159.001 63.3953 159.241 63.7607 159.558 64.0293C159.879 64.2934 160.276 64.4255 160.747 64.4255ZM170.369 60.5423V66.4067H167.555V56.2629H170.237V58.0526H170.356C170.58 57.4626 170.957 56.996 171.485 56.6525C172.013 56.3047 172.654 56.1308 173.407 56.1308C174.111 56.1308 174.725 56.2849 175.249 56.5931C175.773 56.9013 176.18 57.3416 176.471 57.9139C176.762 58.4819 176.907 59.1599 176.907 59.948V66.4067H174.093V60.4499C174.098 59.8291 173.939 59.3448 173.618 58.997C173.297 58.6448 172.854 58.4687 172.291 58.4687C171.912 58.4687 171.577 58.5501 171.287 58.713C171.001 58.8759 170.776 59.1137 170.613 59.4262C170.455 59.7344 170.373 60.1065 170.369 60.5423ZM181.937 60.5423V66.4067H179.124V52.8816H181.858V58.0526H181.977C182.206 57.4538 182.576 56.9849 183.087 56.6459C183.597 56.3025 184.238 56.1308 185.008 56.1308C185.713 56.1308 186.327 56.2849 186.851 56.5931C187.379 56.8969 187.789 57.335 188.079 57.9073C188.374 58.4753 188.519 59.1555 188.515 59.948V66.4067H185.702V60.4499C185.706 59.8247 185.548 59.3382 185.226 58.9904C184.909 58.6426 184.465 58.4687 183.892 58.4687C183.509 58.4687 183.17 58.5501 182.875 58.713C182.585 58.8759 182.356 59.1137 182.188 59.4262C182.025 59.7344 181.942 60.1065 181.937 60.5423ZM195.352 66.6049C194.308 66.6049 193.41 66.3935 192.657 65.9709C191.909 65.5438 191.332 64.9406 190.927 64.1614C190.522 63.3777 190.32 62.4509 190.32 61.381C190.32 60.3376 190.522 59.4218 190.927 58.6338C191.332 57.8457 191.902 57.2315 192.638 56.7912C193.377 56.351 194.245 56.1308 195.24 56.1308C195.909 56.1308 196.532 56.2387 197.109 56.4544C197.69 56.6658 198.196 56.9849 198.628 57.412C199.063 57.8391 199.402 58.3762 199.645 59.0234C199.887 59.6662 200.008 60.4191 200.008 61.282V62.0547H191.442V60.3112H197.36C197.36 59.9061 197.272 59.5473 197.095 59.2347C196.919 58.9221 196.675 58.6778 196.362 58.5017C196.054 58.3212 195.695 58.2309 195.286 58.2309C194.859 58.2309 194.48 58.33 194.15 58.5281C193.824 58.7218 193.569 58.9838 193.384 59.314C193.199 59.6398 193.104 60.003 193.1 60.4036V62.0613C193.1 62.5632 193.192 62.9968 193.377 63.3623C193.567 63.7277 193.833 64.0095 194.176 64.2076C194.52 64.4057 194.927 64.5048 195.398 64.5048C195.711 64.5048 195.997 64.4607 196.257 64.3727C196.516 64.2846 196.739 64.1526 196.924 63.9764C197.109 63.8003 197.249 63.5846 197.346 63.3292L199.948 63.501C199.816 64.1261 199.546 64.6721 199.136 65.1388C198.731 65.601 198.207 65.9621 197.564 66.2218C196.926 66.4772 196.188 66.6049 195.352 66.6049ZM206.427 66.6049C205.388 66.6049 204.494 66.3847 203.746 65.9445C203.002 65.4998 202.429 64.8834 202.029 64.0953C201.632 63.3072 201.434 62.4003 201.434 61.3744C201.434 60.3354 201.635 59.424 202.035 58.6404C202.44 57.8523 203.015 57.2381 203.759 56.7978C204.503 56.3532 205.388 56.1308 206.414 56.1308C207.299 56.1308 208.074 56.2915 208.738 56.6129C209.403 56.9343 209.929 57.3856 210.317 57.9668C210.704 58.5479 210.918 59.2303 210.957 60.014H208.302C208.228 59.5077 208.03 59.1004 207.708 58.7923C207.391 58.4797 206.975 58.3234 206.46 58.3234C206.024 58.3234 205.643 58.4422 205.317 58.68C204.996 58.9133 204.745 59.2545 204.565 59.7036C204.384 60.1527 204.294 60.6964 204.294 61.3348C204.294 61.982 204.382 62.5324 204.558 62.9858C204.739 63.4393 204.992 63.7849 205.317 64.0227C205.643 64.2604 206.024 64.3793 206.46 64.3793C206.781 64.3793 207.07 64.3133 207.325 64.1812C207.585 64.0491 207.798 63.8576 207.966 63.6066C208.137 63.3513 208.25 63.0453 208.302 62.6887H210.957C210.913 63.4635 210.702 64.1459 210.323 64.7359C209.949 65.3215 209.432 65.7794 208.771 66.1096C208.111 66.4398 207.329 66.6049 206.427 66.6049ZM212.759 66.4067V56.2629H215.572V66.4067H212.759ZM214.172 54.9553C213.754 54.9553 213.395 54.8166 213.095 54.5392C212.8 54.2575 212.653 53.9207 212.653 53.5288C212.653 53.1414 212.8 52.809 213.095 52.5316C213.395 52.2498 213.754 52.1089 214.172 52.1089C214.59 52.1089 214.947 52.2498 215.242 52.5316C215.541 52.809 215.691 53.1414 215.691 53.5288C215.691 53.9207 215.541 54.2575 215.242 54.5392C214.947 54.8166 214.59 54.9553 214.172 54.9553ZM217.826 66.4067V56.2629H220.507V58.0526H220.626C220.837 57.4582 221.189 56.9893 221.682 56.6459C222.175 56.3025 222.765 56.1308 223.452 56.1308C224.148 56.1308 224.74 56.3047 225.229 56.6525C225.717 56.996 226.043 57.4626 226.206 58.0526H226.312C226.519 57.4714 226.893 57.007 227.434 56.6591C227.98 56.3069 228.625 56.1308 229.369 56.1308C230.316 56.1308 231.084 56.4324 231.674 57.0356C232.269 57.6343 232.566 58.4841 232.566 59.5847V66.4067H229.759V60.1395C229.759 59.5759 229.609 59.1533 229.31 58.8715C229.011 58.5897 228.636 58.4488 228.187 58.4488C227.677 58.4488 227.278 58.6117 226.992 58.9375C226.706 59.2589 226.563 59.6838 226.563 60.2121V66.4067H223.835V60.08C223.835 59.5825 223.692 59.1863 223.406 58.8913C223.124 58.5963 222.752 58.4488 222.29 58.4488C221.977 58.4488 221.696 58.5281 221.445 58.6866C221.198 58.8407 221.002 59.0586 220.857 59.3404C220.712 59.6178 220.639 59.9436 220.639 60.3178V66.4067H217.826ZM239.411 66.6049C238.367 66.6049 237.469 66.3935 236.716 65.9709C235.968 65.5438 235.391 64.9406 234.986 64.1614C234.581 63.3777 234.379 62.4509 234.379 61.381C234.379 60.3376 234.581 59.4218 234.986 58.6338C235.391 57.8457 235.961 57.2315 236.697 56.7912C237.436 56.351 238.304 56.1308 239.299 56.1308C239.968 56.1308 240.591 56.2387 241.168 56.4544C241.749 56.6658 242.255 56.9849 242.687 57.412C243.122 57.8391 243.461 58.3762 243.704 59.0234C243.946 59.6662 244.067 60.4191 244.067 61.282V62.0547H235.501V60.3112H241.419C241.419 59.9061 241.33 59.5473 241.154 59.2347C240.978 58.9221 240.734 58.6778 240.421 58.5017C240.113 58.3212 239.754 58.2309 239.345 58.2309C238.918 58.2309 238.539 58.33 238.209 58.5281C237.883 58.7218 237.628 58.9838 237.443 59.314C237.258 59.6398 237.163 60.003 237.159 60.4036V62.0613C237.159 62.5632 237.251 62.9968 237.436 63.3623C237.626 63.7277 237.892 64.0095 238.235 64.2076C238.579 64.4057 238.986 64.5048 239.457 64.5048C239.77 64.5048 240.056 64.4607 240.316 64.3727C240.575 64.2846 240.798 64.1526 240.983 63.9764C241.168 63.8003 241.308 63.5846 241.405 63.3292L244.007 63.501C243.875 64.1261 243.604 64.6721 243.195 65.1388C242.79 65.601 242.266 65.9621 241.623 66.2218C240.985 66.4772 240.247 66.6049 239.411 66.6049ZM248.716 60.5423V66.4067H245.903V56.2629H248.584V58.0526H248.703C248.927 57.4626 249.304 56.996 249.832 56.6525C250.36 56.3047 251.001 56.1308 251.754 56.1308C252.458 56.1308 253.073 56.2849 253.596 56.5931C254.12 56.9013 254.528 57.3416 254.818 57.9139C255.109 58.4819 255.254 59.1599 255.254 59.948V66.4067H252.441V60.4499C252.445 59.8291 252.287 59.3448 251.965 58.997C251.644 58.6448 251.201 58.4687 250.638 58.4687C250.259 58.4687 249.925 58.5501 249.634 58.713C249.348 58.8759 249.123 59.1137 248.96 59.4262C248.802 59.7344 248.72 60.1065 248.716 60.5423ZM262.867 56.2629V58.3762H256.758V56.2629H262.867ZM258.145 53.8326H260.958V63.2896C260.958 63.5494 260.998 63.7519 261.077 63.8972C261.156 64.0381 261.266 64.1371 261.407 64.1944C261.553 64.2516 261.72 64.2802 261.909 64.2802C262.041 64.2802 262.173 64.2692 262.306 64.2472C262.438 64.2208 262.539 64.201 262.609 64.1878L263.052 66.2813C262.911 66.3253 262.713 66.3759 262.457 66.4332C262.202 66.4948 261.892 66.5322 261.526 66.5454C260.848 66.5718 260.254 66.4816 259.743 66.2747C259.237 66.0677 258.843 65.7463 258.561 65.3105C258.279 64.8746 258.141 64.3243 258.145 63.6594V53.8326ZM269.174 66.6049C268.148 66.6049 267.261 66.3869 266.512 65.9511C265.768 65.5108 265.194 64.8988 264.789 64.1151C264.384 63.327 264.181 62.4135 264.181 61.3744C264.181 60.3266 264.384 59.4108 264.789 58.6272C265.194 57.8391 265.768 57.2271 266.512 56.7912C267.261 56.351 268.148 56.1308 269.174 56.1308C270.2 56.1308 271.085 56.351 271.829 56.7912C272.577 57.2271 273.154 57.8391 273.559 58.6272C273.964 59.4108 274.166 60.3266 274.166 61.3744C274.166 62.4135 273.964 63.327 273.559 64.1151C273.154 64.8988 272.577 65.5108 271.829 65.9511C271.085 66.3869 270.2 66.6049 269.174 66.6049ZM269.187 64.4255C269.654 64.4255 270.043 64.2934 270.356 64.0293C270.668 63.7607 270.904 63.3953 271.063 62.933C271.225 62.4707 271.307 61.9446 271.307 61.3546C271.307 60.7647 271.225 60.2385 271.063 59.7763C270.904 59.314 270.668 58.9486 270.356 58.68C270.043 58.4114 269.654 58.2771 269.187 58.2771C268.716 58.2771 268.32 58.4114 267.998 58.68C267.681 58.9486 267.441 59.314 267.278 59.7763C267.12 60.2385 267.041 60.7647 267.041 61.3546C267.041 61.9446 267.12 62.4707 267.278 62.933C267.441 63.3953 267.681 63.7607 267.998 64.0293C268.32 64.2934 268.716 64.4255 269.187 64.4255ZM156.21 89.5718C155.44 89.5718 154.742 89.3737 154.117 88.9775C153.496 88.5768 153.003 87.9891 152.638 87.2142C152.277 86.4349 152.096 85.4795 152.096 84.348C152.096 83.1857 152.283 82.2193 152.658 81.4488C153.032 80.674 153.529 80.095 154.15 79.712C154.775 79.3245 155.46 79.1308 156.204 79.1308C156.772 79.1308 157.245 79.2277 157.624 79.4214C158.007 79.6107 158.315 79.8485 158.548 80.1346C158.786 80.4164 158.967 80.6938 159.09 80.9668H159.176V75.8816H161.982V89.4067H159.209V87.7821H159.09C158.958 88.0639 158.771 88.3435 158.529 88.6209C158.291 88.8938 157.98 89.1206 157.597 89.3011C157.219 89.4816 156.756 89.5718 156.21 89.5718ZM157.102 87.3331C157.556 87.3331 157.939 87.2098 158.251 86.9632C158.568 86.7123 158.81 86.3623 158.978 85.9132C159.149 85.4641 159.235 84.938 159.235 84.3348C159.235 83.7317 159.152 83.2077 158.984 82.7631C158.817 82.3184 158.575 81.975 158.258 81.7328C157.941 81.4907 157.556 81.3696 157.102 81.3696C156.64 81.3696 156.25 81.4951 155.933 81.746C155.616 81.997 155.376 82.3448 155.213 82.7895C155.05 83.2341 154.969 83.7493 154.969 84.3348C154.969 84.9248 155.05 85.4465 155.213 85.9C155.381 86.3491 155.621 86.7013 155.933 86.9566C156.25 87.2076 156.64 87.3331 157.102 87.3331ZM168.879 89.6049C167.853 89.6049 166.966 89.3869 166.217 88.9511C165.473 88.5108 164.899 87.8988 164.494 87.1151C164.089 86.327 163.886 85.4135 163.886 84.3744C163.886 83.3266 164.089 82.4108 164.494 81.6272C164.899 80.8391 165.473 80.2271 166.217 79.7912C166.966 79.351 167.853 79.1308 168.879 79.1308C169.905 79.1308 170.79 79.351 171.534 79.7912C172.282 80.2271 172.859 80.8391 173.264 81.6272C173.669 82.4108 173.871 83.3266 173.871 84.3744C173.871 85.4135 173.669 86.327 173.264 87.1151C172.859 87.8988 172.282 88.5108 171.534 88.9511C170.79 89.3869 169.905 89.6049 168.879 89.6049ZM168.892 87.4255C169.359 87.4255 169.748 87.2934 170.061 87.0293C170.373 86.7607 170.609 86.3953 170.767 85.933C170.93 85.4707 171.012 84.9446 171.012 84.3546C171.012 83.7647 170.93 83.2385 170.767 82.7763C170.609 82.314 170.373 81.9486 170.061 81.68C169.748 81.4114 169.359 81.2771 168.892 81.2771C168.421 81.2771 168.025 81.4114 167.703 81.68C167.386 81.9486 167.146 82.314 166.983 82.7763C166.825 83.2385 166.746 83.7647 166.746 84.3546C166.746 84.9446 166.825 85.4707 166.983 85.933C167.146 86.3953 167.386 86.7607 167.703 87.0293C168.025 87.2934 168.421 87.4255 168.892 87.4255ZM191.991 80.6167H189.099C189.046 80.2425 188.938 79.9101 188.775 79.6195C188.612 79.3245 188.403 79.0736 188.148 78.8667C187.892 78.6597 187.597 78.5012 187.263 78.3912C186.933 78.2811 186.574 78.2261 186.186 78.2261C185.486 78.2261 184.877 78.4 184.357 78.7478C183.837 79.0912 183.435 79.5931 183.148 80.2535C182.862 80.9095 182.719 81.7064 182.719 82.6442C182.719 83.6084 182.862 84.4185 183.148 85.0745C183.439 85.7305 183.844 86.2258 184.364 86.5604C184.883 86.895 185.484 87.0623 186.167 87.0623C186.55 87.0623 186.904 87.0117 187.23 86.9104C187.56 86.8091 187.853 86.6617 188.108 86.4679C188.363 86.2698 188.575 86.0299 188.742 85.7481C188.914 85.4663 189.033 85.1449 189.099 84.7839L191.991 84.7971C191.916 85.4179 191.729 86.0167 191.43 86.5934C191.135 87.1658 190.737 87.6787 190.235 88.1322C189.737 88.5812 189.143 88.9379 188.452 89.202C187.765 89.4618 186.988 89.5917 186.12 89.5917C184.914 89.5917 183.835 89.3187 182.884 88.7727C181.938 88.2268 181.189 87.4365 180.639 86.4019C180.093 85.3673 179.82 84.1147 179.82 82.6442C179.82 81.1693 180.097 79.9145 180.652 78.8799C181.207 77.8452 181.96 77.0571 182.911 76.5156C183.862 75.9697 184.932 75.6967 186.12 75.6967C186.904 75.6967 187.63 75.8068 188.3 76.0269C188.973 76.247 189.57 76.5684 190.089 76.9911C190.609 77.4094 191.031 77.9223 191.357 78.5299C191.687 79.1374 191.899 79.8331 191.991 80.6167ZM198.572 89.6049C197.546 89.6049 196.659 89.3869 195.911 88.9511C195.167 88.5108 194.592 87.8988 194.187 87.1151C193.782 86.327 193.58 85.4135 193.58 84.3744C193.58 83.3266 193.782 82.4108 194.187 81.6272C194.592 80.8391 195.167 80.2271 195.911 79.7912C196.659 79.351 197.546 79.1308 198.572 79.1308C199.598 79.1308 200.483 79.351 201.227 79.7912C201.976 80.2271 202.552 80.8391 202.957 81.6272C203.362 82.4108 203.565 83.3266 203.565 84.3744C203.565 85.4135 203.362 86.327 202.957 87.1151C202.552 87.8988 201.976 88.5108 201.227 88.9511C200.483 89.3869 199.598 89.6049 198.572 89.6049ZM198.585 87.4255C199.052 87.4255 199.442 87.2934 199.754 87.0293C200.067 86.7607 200.302 86.3953 200.461 85.933C200.624 85.4707 200.705 84.9446 200.705 84.3546C200.705 83.7647 200.624 83.2385 200.461 82.7763C200.302 82.314 200.067 81.9486 199.754 81.68C199.442 81.4114 199.052 81.2771 198.585 81.2771C198.114 81.2771 197.718 81.4114 197.397 81.68C197.08 81.9486 196.84 82.314 196.677 82.7763C196.518 83.2385 196.439 83.7647 196.439 84.3546C196.439 84.9446 196.518 85.4707 196.677 85.933C196.84 86.3953 197.08 86.7607 197.397 87.0293C197.718 87.2934 198.114 87.4255 198.585 87.4255ZM208.208 83.5423V89.4067H205.394V79.2629H208.075V81.0526H208.194C208.419 80.4626 208.795 79.996 209.324 79.6525C209.852 79.3047 210.493 79.1308 211.245 79.1308C211.95 79.1308 212.564 79.2849 213.088 79.5931C213.612 79.9013 214.019 80.3416 214.31 80.9139C214.6 81.4819 214.746 82.1599 214.746 82.948V89.4067H211.932V83.4499C211.937 82.8291 211.778 82.3448 211.457 81.997C211.135 81.6448 210.693 81.4687 210.129 81.4687C209.751 81.4687 209.416 81.5501 209.126 81.713C208.839 81.8759 208.615 82.1137 208.452 82.4262C208.293 82.7344 208.212 83.1065 208.208 83.5423ZM222.358 79.2629V81.3762H216.25V79.2629H222.358ZM217.636 76.8326H220.45V86.2896C220.45 86.5494 220.489 86.7519 220.569 86.8972C220.648 87.0381 220.758 87.1371 220.899 87.1944C221.044 87.2516 221.211 87.2802 221.401 87.2802C221.533 87.2802 221.665 87.2692 221.797 87.2472C221.929 87.2208 222.03 87.201 222.101 87.1878L222.543 89.2813C222.402 89.3253 222.204 89.3759 221.949 89.4332C221.694 89.4948 221.383 89.5322 221.018 89.5454C220.34 89.5718 219.745 89.4816 219.235 89.2747C218.728 89.0677 218.334 88.7463 218.053 88.3105C217.771 87.8746 217.632 87.3243 217.636 86.6594V76.8326ZM228.705 89.6049C227.661 89.6049 226.763 89.3935 226.01 88.9709C225.262 88.5438 224.685 87.9406 224.28 87.1614C223.875 86.3777 223.673 85.4509 223.673 84.381C223.673 83.3376 223.875 82.4218 224.28 81.6338C224.685 80.8457 225.255 80.2315 225.991 79.7912C226.73 79.351 227.598 79.1308 228.593 79.1308C229.262 79.1308 229.885 79.2387 230.462 79.4544C231.043 79.6658 231.549 79.9849 231.981 80.412C232.416 80.8391 232.755 81.3762 232.998 82.0234C233.24 82.6662 233.361 83.4191 233.361 84.282V85.0547H224.795V83.3112H230.713C230.713 82.9061 230.624 82.5473 230.448 82.2347C230.272 81.9221 230.028 81.6778 229.715 81.5017C229.407 81.3212 229.048 81.2309 228.639 81.2309C228.212 81.2309 227.833 81.33 227.503 81.5281C227.177 81.7218 226.922 81.9838 226.737 82.314C226.552 82.6398 226.457 83.003 226.453 83.4036V85.0613C226.453 85.5632 226.545 85.9968 226.73 86.3623C226.92 86.7277 227.186 87.0095 227.529 87.2076C227.873 87.4057 228.28 87.5048 228.751 87.5048C229.064 87.5048 229.35 87.4607 229.61 87.3727C229.869 87.2846 230.092 87.1526 230.277 86.9764C230.462 86.8003 230.602 86.5846 230.699 86.3292L233.301 86.501C233.169 87.1261 232.898 87.6721 232.489 88.1388C232.084 88.601 231.56 88.9621 230.917 89.2218C230.279 89.4772 229.541 89.6049 228.705 89.6049ZM241.702 85.0877V79.2629H244.515V89.4067H241.814V87.5642H241.708C241.479 88.1586 241.099 88.6363 240.566 88.9973C240.037 89.3583 239.392 89.5388 238.631 89.5388C237.953 89.5388 237.356 89.3847 236.841 89.0765C236.326 88.7683 235.923 88.3303 235.633 87.7623C235.346 87.1944 235.201 86.5142 235.197 85.7217V79.2629H238.01V85.2198C238.014 85.8185 238.175 86.2918 238.492 86.6396C238.809 86.9875 239.234 87.1614 239.767 87.1614C240.106 87.1614 240.423 87.0843 240.718 86.9302C241.013 86.7717 241.25 86.5384 241.431 86.2302C241.616 85.922 241.706 85.5412 241.702 85.0877ZM238.855 77.9553L240.255 74.9505H242.857L240.843 77.9553H238.855ZM250.503 89.5718C249.733 89.5718 249.035 89.3737 248.41 88.9775C247.789 88.5768 247.296 87.9891 246.93 87.2142C246.569 86.4349 246.389 85.4795 246.389 84.348C246.389 83.1857 246.576 82.2193 246.95 81.4488C247.324 80.674 247.822 80.095 248.443 79.712C249.068 79.3245 249.753 79.1308 250.497 79.1308C251.065 79.1308 251.538 79.2277 251.917 79.4214C252.3 79.6107 252.608 79.8485 252.841 80.1346C253.079 80.4164 253.259 80.6938 253.383 80.9668H253.468V75.8816H256.275V89.4067H253.501V87.7821H253.383C253.251 88.0639 253.063 88.3435 252.821 88.6209C252.584 88.8938 252.273 89.1206 251.89 89.3011C251.511 89.4816 251.049 89.5718 250.503 89.5718ZM251.395 87.3331C251.848 87.3331 252.231 87.2098 252.544 86.9632C252.861 86.7123 253.103 86.3623 253.27 85.9132C253.442 85.4641 253.528 84.938 253.528 84.3348C253.528 83.7317 253.444 83.2077 253.277 82.7631C253.11 82.3184 252.868 81.975 252.551 81.7328C252.234 81.4907 251.848 81.3696 251.395 81.3696C250.933 81.3696 250.543 81.4951 250.226 81.746C249.909 81.997 249.669 82.3448 249.506 82.7895C249.343 83.2341 249.262 83.7493 249.262 84.3348C249.262 84.9248 249.343 85.4465 249.506 85.9C249.673 86.3491 249.913 86.7013 250.226 86.9566C250.543 87.2076 250.933 87.3331 251.395 87.3331ZM263.171 89.6049C262.146 89.6049 261.259 89.3869 260.51 88.9511C259.766 88.5108 259.191 87.8988 258.786 87.1151C258.381 86.327 258.179 85.4135 258.179 84.3744C258.179 83.3266 258.381 82.4108 258.786 81.6272C259.191 80.8391 259.766 80.2271 260.51 79.7912C261.259 79.351 262.146 79.1308 263.171 79.1308C264.197 79.1308 265.082 79.351 265.826 79.7912C266.575 80.2271 267.152 80.8391 267.557 81.6272C267.962 82.4108 268.164 83.3266 268.164 84.3744C268.164 85.4135 267.962 86.327 267.557 87.1151C267.152 87.8988 266.575 88.5108 265.826 88.9511C265.082 89.3869 264.197 89.6049 263.171 89.6049ZM263.185 87.4255C263.651 87.4255 264.041 87.2934 264.354 87.0293C264.666 86.7607 264.902 86.3953 265.06 85.933C265.223 85.4707 265.305 84.9446 265.305 84.3546C265.305 83.7647 265.223 83.2385 265.06 82.7763C264.902 82.314 264.666 81.9486 264.354 81.68C264.041 81.4114 263.651 81.2771 263.185 81.2771C262.714 81.2771 262.317 81.4114 261.996 81.68C261.679 81.9486 261.439 82.314 261.276 82.7763C261.118 83.2385 261.038 83.7647 261.038 84.3546C261.038 84.9446 261.118 85.4707 261.276 85.933C261.439 86.3953 261.679 86.7607 261.996 87.0293C262.317 87.2934 262.714 87.4255 263.185 87.4255Z" fill="black"/>
</g>
<g style="mix-blend-mode:multiply">
<path d="M288.254 273.212C288.254 352.811 223.726 417.339 144.127 417.339C64.5279 417.339 0 352.811 0 273.212C0 193.613 64.5279 129.085 144.127 129.085C223.726 129.085 288.254 193.613 288.254 273.212Z" fill="#CC474B" fill-opacity="0.5"/>
<path d="M21.8303 297.346H18.9377C18.8849 296.972 18.777 296.639 18.6141 296.349C18.4512 296.054 18.2421 295.803 17.9867 295.596C17.7314 295.389 17.4364 295.23 17.1018 295.12C16.7716 295.01 16.4128 294.955 16.0253 294.955C15.3253 294.955 14.7155 295.129 14.196 295.477C13.6765 295.82 13.2736 296.322 12.9875 296.983C12.7013 297.639 12.5582 298.435 12.5582 299.373C12.5582 300.337 12.7013 301.147 12.9875 301.803C13.278 302.459 13.6831 302.955 14.2026 303.289C14.7221 303.624 15.3231 303.791 16.0055 303.791C16.3886 303.791 16.743 303.741 17.0688 303.639C17.399 303.538 17.6918 303.391 17.9471 303.197C18.2025 302.999 18.4138 302.759 18.5811 302.477C18.7528 302.195 18.8717 301.874 18.9377 301.513L21.8303 301.526C21.7555 302.147 21.5683 302.746 21.269 303.322C20.974 303.895 20.5755 304.408 20.0736 304.861C19.5761 305.31 18.9818 305.667 18.2905 305.931C17.6037 306.191 16.8266 306.321 15.9593 306.321C14.753 306.321 13.6743 306.048 12.7233 305.502C11.7767 304.956 11.0283 304.166 10.4779 303.131C9.93199 302.096 9.65902 300.844 9.65902 299.373C9.65902 297.898 9.93639 296.644 10.4911 295.609C11.0459 294.574 11.7987 293.786 12.7497 293.245C13.7007 292.699 14.7706 292.426 15.9593 292.426C16.743 292.426 17.4694 292.536 18.1386 292.756C18.8122 292.976 19.4088 293.297 19.9283 293.72C20.4479 294.138 20.8705 294.651 21.1963 295.259C21.5265 295.866 21.7378 296.562 21.8303 297.346ZM28.4112 306.334C27.3854 306.334 26.4983 306.116 25.7498 305.68C25.0058 305.24 24.4312 304.628 24.0262 303.844C23.6211 303.056 23.4186 302.142 23.4186 301.103C23.4186 300.056 23.6211 299.14 24.0262 298.356C24.4312 297.568 25.0058 296.956 25.7498 296.52C26.4983 296.08 27.3854 295.86 28.4112 295.86C29.4371 295.86 30.322 296.08 31.0661 296.52C31.8145 296.956 32.3913 297.568 32.7963 298.356C33.2014 299.14 33.4039 300.056 33.4039 301.103C33.4039 302.142 33.2014 303.056 32.7963 303.844C32.3913 304.628 31.8145 305.24 31.0661 305.68C30.322 306.116 29.4371 306.334 28.4112 306.334ZM28.4245 304.155C28.8911 304.155 29.2808 304.022 29.5934 303.758C29.906 303.49 30.1415 303.124 30.3 302.662C30.4629 302.2 30.5444 301.674 30.5444 301.084C30.5444 300.494 30.4629 299.968 30.3 299.505C30.1415 299.043 29.906 298.678 29.5934 298.409C29.2808 298.14 28.8911 298.006 28.4245 298.006C27.9534 298.006 27.5571 298.14 27.2357 298.409C26.9187 298.678 26.6788 299.043 26.5159 299.505C26.3574 299.968 26.2781 300.494 26.2781 301.084C26.2781 301.674 26.3574 302.2 26.5159 302.662C26.6788 303.124 26.9187 303.49 27.2357 303.758C27.5571 304.022 27.9534 304.155 28.4245 304.155ZM38.0466 300.271V306.136H35.2332V295.992H37.9145V297.782H38.0334C38.2579 297.192 38.6343 296.725 39.1627 296.382C39.691 296.034 40.3316 295.86 41.0844 295.86C41.7889 295.86 42.403 296.014 42.927 296.322C43.4509 296.63 43.8581 297.071 44.1487 297.643C44.4393 298.211 44.5846 298.889 44.5846 299.677V306.136H41.7713V300.179C41.7757 299.558 41.6172 299.074 41.2958 298.726C40.9744 298.374 40.5319 298.198 39.9684 298.198C39.5897 298.198 39.2551 298.279 38.9645 298.442C38.6784 298.605 38.4538 298.843 38.2909 299.155C38.1324 299.463 38.051 299.835 38.0466 300.271ZM49.6152 300.271V306.136H46.8019V292.611H49.536V297.782H49.6549C49.8838 297.183 50.2536 296.714 50.7643 296.375C51.2751 296.032 51.9156 295.86 52.6861 295.86C53.3906 295.86 54.0047 296.014 54.5287 296.322C55.057 296.626 55.4664 297.064 55.757 297.636C56.052 298.204 56.1973 298.884 56.1929 299.677V306.136H53.3795V300.179C53.3839 299.554 53.2254 299.067 52.9041 298.719C52.5871 298.372 52.1424 298.198 51.57 298.198C51.187 298.198 50.848 298.279 50.553 298.442C50.2624 298.605 50.0335 298.843 49.8662 299.155C49.7033 299.463 49.6196 299.835 49.6152 300.271ZM63.0297 306.334C61.9863 306.334 61.0881 306.123 60.3353 305.7C59.5868 305.273 59.0101 304.67 58.605 303.89C58.2 303.107 57.9974 302.18 57.9974 301.11C57.9974 300.067 58.2 299.151 58.605 298.363C59.0101 297.575 59.5802 296.961 60.3155 296.52C61.0551 296.08 61.9224 295.86 62.9175 295.86C63.5867 295.86 64.2097 295.968 64.7864 296.183C65.3676 296.395 65.8739 296.714 66.3053 297.141C66.7412 297.568 67.0802 298.105 67.3224 298.752C67.5645 299.395 67.6856 300.148 67.6856 301.011V301.784H59.1201V300.04H65.0374C65.0374 299.635 64.9493 299.276 64.7732 298.964C64.5971 298.651 64.3527 298.407 64.0401 298.231C63.732 298.05 63.3731 297.96 62.9637 297.96C62.5366 297.96 62.158 298.059 61.8278 298.257C61.502 298.451 61.2466 298.713 61.0617 299.043C60.8768 299.369 60.7821 299.732 60.7777 300.133V301.79C60.7777 302.292 60.8702 302.726 61.0551 303.091C61.2444 303.457 61.5108 303.738 61.8542 303.937C62.1976 304.135 62.6049 304.234 63.076 304.234C63.3885 304.234 63.6747 304.19 63.9345 304.102C64.1942 304.014 64.4166 303.882 64.6015 303.705C64.7864 303.529 64.9273 303.314 65.0242 303.058L67.6262 303.23C67.4941 303.855 67.2233 304.401 66.8139 304.868C66.4088 305.33 65.8849 305.691 65.2421 305.951C64.6037 306.206 63.8662 306.334 63.0297 306.334ZM74.1047 306.334C73.0657 306.334 72.1719 306.114 71.4235 305.673C70.6794 305.229 70.1071 304.612 69.7064 303.824C69.3102 303.036 69.1121 302.129 69.1121 301.103C69.1121 300.064 69.3124 299.153 69.713 298.369C70.1181 297.581 70.6926 296.967 71.4367 296.527C72.1808 296.082 73.0657 295.86 74.0915 295.86C74.9765 295.86 75.7513 296.021 76.4162 296.342C77.081 296.663 77.6071 297.115 77.9945 297.696C78.382 298.277 78.5955 298.959 78.6351 299.743H75.9803C75.9054 299.237 75.7073 298.829 75.3859 298.521C75.0689 298.209 74.6529 298.052 74.1378 298.052C73.7019 298.052 73.3211 298.171 72.9953 298.409C72.6739 298.642 72.4229 298.984 72.2424 299.433C72.0619 299.882 71.9716 300.425 71.9716 301.064C71.9716 301.711 72.0597 302.261 72.2358 302.715C72.4163 303.168 72.6695 303.514 72.9953 303.752C73.3211 303.989 73.7019 304.108 74.1378 304.108C74.4592 304.108 74.7475 304.042 75.0029 303.91C75.2626 303.778 75.4762 303.587 75.6435 303.336C75.8152 303.08 75.9275 302.774 75.9803 302.418H78.6351C78.5911 303.193 78.3798 303.875 78.0011 304.465C77.6269 305.05 77.1096 305.508 76.4492 305.839C75.7888 306.169 75.0073 306.334 74.1047 306.334ZM80.4364 306.136V295.992H83.2497V306.136H80.4364ZM81.8496 294.684C81.4314 294.684 81.0726 294.546 80.7732 294.268C80.4782 293.986 80.3307 293.65 80.3307 293.258C80.3307 292.87 80.4782 292.538 80.7732 292.261C81.0726 291.979 81.4314 291.838 81.8496 291.838C82.2679 291.838 82.6245 291.979 82.9195 292.261C83.2189 292.538 83.3686 292.87 83.3686 293.258C83.3686 293.65 83.2189 293.986 82.9195 294.268C82.6245 294.546 82.2679 294.684 81.8496 294.684ZM85.5033 306.136V295.992H88.1846V297.782H88.3035C88.5148 297.187 88.867 296.718 89.3601 296.375C89.8532 296.032 90.4432 295.86 91.13 295.86C91.8256 295.86 92.4178 296.034 92.9065 296.382C93.3952 296.725 93.721 297.192 93.8839 297.782H93.9896C94.1965 297.2 94.5707 296.736 95.1123 296.388C95.6582 296.036 96.3032 295.86 97.0472 295.86C97.9938 295.86 98.7621 296.161 99.3521 296.765C99.9464 297.363 100.244 298.213 100.244 299.314V306.136H97.4369V299.868C97.4369 299.305 97.2872 298.882 96.9878 298.601C96.6884 298.319 96.3142 298.178 95.8651 298.178C95.3544 298.178 94.956 298.341 94.6698 298.667C94.3836 298.988 94.2405 299.413 94.2405 299.941V306.136H91.513V299.809C91.513 299.312 91.3699 298.915 91.0838 298.62C90.802 298.325 90.43 298.178 89.9677 298.178C89.6551 298.178 89.3733 298.257 89.1224 298.416C88.8758 298.57 88.6799 298.788 88.5346 299.069C88.3893 299.347 88.3167 299.673 88.3167 300.047V306.136H85.5033ZM107.089 306.334C106.045 306.334 105.147 306.123 104.394 305.7C103.646 305.273 103.069 304.67 102.664 303.89C102.259 303.107 102.056 302.18 102.056 301.11C102.056 300.067 102.259 299.151 102.664 298.363C103.069 297.575 103.639 296.961 104.374 296.52C105.114 296.08 105.981 295.86 106.976 295.86C107.646 295.86 108.269 295.968 108.845 296.183C109.427 296.395 109.933 296.714 110.364 297.141C110.8 297.568 111.139 298.105 111.381 298.752C111.623 299.395 111.745 300.148 111.745 301.011V301.784H103.179V300.04H109.096C109.096 299.635 109.008 299.276 108.832 298.964C108.656 298.651 108.412 298.407 108.099 298.231C107.791 298.05 107.432 297.96 107.023 297.96C106.596 297.96 106.217 298.059 105.887 298.257C105.561 298.451 105.306 298.713 105.121 299.043C104.936 299.369 104.841 299.732 104.837 300.133V301.79C104.837 302.292 104.929 302.726 105.114 303.091C105.303 303.457 105.57 303.738 105.913 303.937C106.257 304.135 106.664 304.234 107.135 304.234C107.448 304.234 107.734 304.19 107.993 304.102C108.253 304.014 108.476 303.882 108.66 303.705C108.845 303.529 108.986 303.314 109.083 303.058L111.685 303.23C111.553 303.855 111.282 304.401 110.873 304.868C110.468 305.33 109.944 305.691 109.301 305.951C108.663 306.206 107.925 306.334 107.089 306.334ZM116.394 300.271V306.136H113.58V295.992H116.262V297.782H116.381C116.605 297.192 116.982 296.725 117.51 296.382C118.038 296.034 118.679 295.86 119.432 295.86C120.136 295.86 120.75 296.014 121.274 296.322C121.798 296.63 122.205 297.071 122.496 297.643C122.787 298.211 122.932 298.889 122.932 299.677V306.136H120.119V300.179C120.123 299.558 119.964 299.074 119.643 298.726C119.322 298.374 118.879 298.198 118.316 298.198C117.937 298.198 117.602 298.279 117.312 298.442C117.026 298.605 116.801 298.843 116.638 299.155C116.48 299.463 116.398 299.835 116.394 300.271ZM130.545 295.992V298.105H124.436V295.992H130.545ZM125.823 293.562H128.636V303.019C128.636 303.278 128.676 303.481 128.755 303.626C128.834 303.767 128.944 303.866 129.085 303.923C129.23 303.981 129.398 304.009 129.587 304.009C129.719 304.009 129.851 303.998 129.983 303.976C130.115 303.95 130.217 303.93 130.287 303.917L130.73 306.01C130.589 306.054 130.391 306.105 130.135 306.162C129.88 306.224 129.569 306.261 129.204 306.274C128.526 306.301 127.932 306.211 127.421 306.004C126.915 305.797 126.521 305.475 126.239 305.039C125.957 304.604 125.818 304.053 125.823 303.388V293.562ZM136.852 306.334C135.826 306.334 134.939 306.116 134.19 305.68C133.446 305.24 132.872 304.628 132.466 303.844C132.061 303.056 131.859 302.142 131.859 301.103C131.859 300.056 132.061 299.14 132.466 298.356C132.872 297.568 133.446 296.956 134.19 296.52C134.939 296.08 135.826 295.86 136.852 295.86C137.877 295.86 138.762 296.08 139.506 296.52C140.255 296.956 140.832 297.568 141.237 298.356C141.642 299.14 141.844 300.056 141.844 301.103C141.844 302.142 141.642 303.056 141.237 303.844C140.832 304.628 140.255 305.24 139.506 305.68C138.762 306.116 137.877 306.334 136.852 306.334ZM136.865 304.155C137.331 304.155 137.721 304.022 138.034 303.758C138.346 303.49 138.582 303.124 138.74 302.662C138.903 302.2 138.985 301.674 138.985 301.084C138.985 300.494 138.903 299.968 138.74 299.505C138.582 299.043 138.346 298.678 138.034 298.409C137.721 298.14 137.331 298.006 136.865 298.006C136.394 298.006 135.997 298.14 135.676 298.409C135.359 298.678 135.119 299.043 134.956 299.505C134.798 299.968 134.718 300.494 134.718 301.084C134.718 301.674 134.798 302.2 134.956 302.662C135.119 303.124 135.359 303.49 135.676 303.758C135.997 304.022 136.394 304.155 136.865 304.155ZM24.9978 329.136V315.611H30.3339C31.3597 315.611 32.2336 315.807 32.9557 316.198C33.6777 316.586 34.228 317.125 34.6067 317.816C34.9897 318.503 35.1812 319.296 35.1812 320.194C35.1812 321.092 34.9875 321.884 34.6001 322.571C34.2126 323.258 33.6513 323.793 32.916 324.176C32.1852 324.559 31.3002 324.751 30.2612 324.751H26.8601V322.459H29.7989C30.3493 322.459 30.8027 322.364 31.1594 322.175C31.5204 321.981 31.7889 321.715 31.9651 321.376C32.1456 321.033 32.2358 320.639 32.2358 320.194C32.2358 319.745 32.1456 319.353 31.9651 319.018C31.7889 318.679 31.5204 318.417 31.1594 318.232C30.7983 318.043 30.3405 317.948 29.7857 317.948H27.8573V329.136H24.9978ZM41.4452 329.334C40.4017 329.334 39.5036 329.123 38.7507 328.7C38.0023 328.273 37.4255 327.67 37.0205 326.89C36.6154 326.107 36.4129 325.18 36.4129 324.11C36.4129 323.067 36.6154 322.151 37.0205 321.363C37.4255 320.575 37.9957 319.961 38.7309 319.52C39.4706 319.08 40.3379 318.86 41.3329 318.86C42.0021 318.86 42.6251 318.968 43.2019 319.183C43.783 319.395 44.2893 319.714 44.7208 320.141C45.1567 320.568 45.4957 321.105 45.7378 321.752C45.98 322.395 46.101 323.148 46.101 324.011V324.784H37.5356V323.04H43.4528C43.4528 322.635 43.3648 322.276 43.1887 321.964C43.0125 321.651 42.7682 321.407 42.4556 321.231C42.1474 321.05 41.7886 320.96 41.3791 320.96C40.9521 320.96 40.5734 321.059 40.2432 321.257C39.9174 321.451 39.6621 321.713 39.4772 322.043C39.2923 322.369 39.1976 322.732 39.1932 323.133V324.79C39.1932 325.292 39.2857 325.726 39.4706 326.091C39.6599 326.457 39.9262 326.738 40.2697 326.937C40.6131 327.135 41.0203 327.234 41.4914 327.234C41.804 327.234 42.0902 327.19 42.3499 327.102C42.6097 327.014 42.832 326.882 43.0169 326.705C43.2019 326.529 43.3427 326.314 43.4396 326.058L46.0416 326.23C45.9095 326.855 45.6388 327.401 45.2293 327.868C44.8243 328.33 44.3003 328.691 43.6575 328.951C43.0191 329.206 42.2817 329.334 41.4452 329.334ZM51.6749 329.301C50.9044 329.301 50.2066 329.103 49.5814 328.706C48.9606 328.306 48.4675 327.718 48.1021 326.943C47.7411 326.164 47.5605 325.209 47.5605 324.077C47.5605 322.915 47.7477 321.948 48.1219 321.178C48.4961 320.403 48.9936 319.824 49.6144 319.441C50.2396 319.054 50.9242 318.86 51.6683 318.86C52.2362 318.86 52.7095 318.957 53.0881 319.15C53.4712 319.34 53.7794 319.577 54.0127 319.864C54.2505 320.145 54.431 320.423 54.5542 320.696H54.6401V315.611H57.4468V329.136H54.6731V327.511H54.5542C54.4222 327.793 54.235 328.072 53.9929 328.35C53.7551 328.623 53.4448 328.85 53.0617 329.03C52.6831 329.211 52.2208 329.301 51.6749 329.301ZM52.5664 327.062C53.0199 327.062 53.4029 326.939 53.7155 326.692C54.0325 326.441 54.2747 326.091 54.442 325.642C54.6137 325.193 54.6995 324.667 54.6995 324.064C54.6995 323.461 54.6159 322.937 54.4486 322.492C54.2813 322.047 54.0391 321.704 53.7221 321.462C53.4051 321.22 53.0199 321.099 52.5664 321.099C52.1041 321.099 51.7145 321.224 51.3975 321.475C51.0805 321.726 50.8406 322.074 50.6777 322.518C50.5148 322.963 50.4333 323.478 50.4333 324.064C50.4333 324.654 50.5148 325.176 50.6777 325.629C50.845 326.078 51.0849 326.43 51.3975 326.686C51.7145 326.937 52.1041 327.062 52.5664 327.062ZM62.6525 329.327C62.0053 329.327 61.4285 329.215 60.9222 328.99C60.4159 328.762 60.0152 328.425 59.7203 327.98C59.4297 327.531 59.2844 326.972 59.2844 326.303C59.2844 325.739 59.3879 325.266 59.5948 324.883C59.8017 324.5 60.0835 324.192 60.4401 323.958C60.7967 323.725 61.2018 323.549 61.6553 323.43C62.1131 323.311 62.593 323.227 63.0949 323.179C63.6849 323.117 64.1604 323.06 64.5214 323.007C64.8824 322.95 65.1444 322.866 65.3073 322.756C65.4702 322.646 65.5516 322.483 65.5516 322.268V322.228C65.5516 321.81 65.4196 321.486 65.1554 321.257C64.8956 321.028 64.5258 320.914 64.0459 320.914C63.5396 320.914 63.1368 321.026 62.8374 321.25C62.538 321.471 62.3399 321.748 62.243 322.083L59.641 321.871C59.7731 321.255 60.0329 320.722 60.4203 320.273C60.8077 319.82 61.3074 319.472 61.9194 319.23C62.5358 318.983 63.249 318.86 64.0591 318.86C64.6227 318.86 65.162 318.926 65.6771 319.058C66.1966 319.19 66.6567 319.395 67.0574 319.672C67.4624 319.949 67.7816 320.306 68.015 320.742C68.2483 321.173 68.365 321.691 68.365 322.294V329.136H65.6969V327.729H65.6177C65.4548 328.046 65.2369 328.326 64.9639 328.568C64.6909 328.806 64.3629 328.993 63.9799 329.129C63.5968 329.261 63.1544 329.327 62.6525 329.327ZM63.4582 327.386C63.872 327.386 64.2374 327.304 64.5544 327.141C64.8714 326.974 65.1202 326.749 65.3007 326.468C65.4812 326.186 65.5715 325.867 65.5715 325.51V324.434C65.4834 324.491 65.3623 324.544 65.2082 324.592C65.0585 324.636 64.889 324.678 64.6997 324.718C64.5104 324.753 64.3211 324.786 64.1318 324.817C63.9425 324.843 63.7708 324.867 63.6167 324.889C63.2865 324.938 62.9981 325.015 62.7515 325.12C62.505 325.226 62.3135 325.369 62.177 325.55C62.0405 325.726 61.9722 325.946 61.9722 326.21C61.9722 326.593 62.1109 326.886 62.3883 327.088C62.6701 327.287 63.0267 327.386 63.4582 327.386ZM75.1176 333.151C74.2063 333.151 73.4248 333.026 72.7732 332.775C72.126 332.528 71.6109 332.191 71.2278 331.764C70.8448 331.337 70.5961 330.857 70.4816 330.324L73.0836 329.974C73.1628 330.177 73.2883 330.366 73.46 330.542C73.6317 330.719 73.8585 330.859 74.1402 330.965C74.4264 331.075 74.7742 331.13 75.1837 331.13C75.7956 331.13 76.2998 330.98 76.696 330.681C77.0966 330.386 77.297 329.891 77.297 329.195V327.339H77.1781C77.0548 327.621 76.8699 327.888 76.6234 328.139C76.3768 328.389 76.0598 328.594 75.6724 328.753C75.2849 328.911 74.8226 328.99 74.2855 328.99C73.5239 328.99 72.8304 328.814 72.2052 328.462C71.5845 328.106 71.0892 327.562 70.7193 326.831C70.3539 326.096 70.1712 325.167 70.1712 324.044C70.1712 322.895 70.3583 321.935 70.7325 321.165C71.1068 320.394 71.6043 319.817 72.2251 319.434C72.8502 319.051 73.5349 318.86 74.2789 318.86C74.8469 318.86 75.3224 318.957 75.7054 319.15C76.0884 319.34 76.3966 319.577 76.63 319.864C76.8677 320.145 77.0504 320.423 77.1781 320.696H77.2838V318.992H80.0773V329.235C80.0773 330.098 79.8659 330.82 79.4433 331.401C79.0206 331.982 78.4351 332.418 77.6866 332.709C76.9426 333.004 76.0862 333.151 75.1176 333.151ZM75.1771 326.877C75.6305 326.877 76.0136 326.765 76.3262 326.54C76.6432 326.311 76.8853 325.986 77.0526 325.563C77.2243 325.136 77.3102 324.625 77.3102 324.031C77.3102 323.436 77.2265 322.921 77.0592 322.485C76.8919 322.045 76.6498 321.704 76.3328 321.462C76.0158 321.22 75.6305 321.099 75.1771 321.099C74.7148 321.099 74.3251 321.224 74.0081 321.475C73.6912 321.722 73.4512 322.065 73.2883 322.505C73.1254 322.946 73.044 323.454 73.044 324.031C73.044 324.616 73.1254 325.123 73.2883 325.55C73.4556 325.972 73.6956 326.3 74.0081 326.534C74.3251 326.763 74.7148 326.877 75.1771 326.877ZM86.8993 329.334C85.8734 329.334 84.9863 329.116 84.2378 328.68C83.4938 328.24 82.9192 327.628 82.5142 326.844C82.1091 326.056 81.9066 325.142 81.9066 324.103C81.9066 323.056 82.1091 322.14 82.5142 321.356C82.9192 320.568 83.4938 319.956 84.2378 319.52C84.9863 319.08 85.8734 318.86 86.8993 318.86C87.9251 318.86 88.81 319.08 89.5541 319.52C90.3026 319.956 90.8793 320.568 91.2844 321.356C91.6894 322.14 91.8919 323.056 91.8919 324.103C91.8919 325.142 91.6894 326.056 91.2844 326.844C90.8793 327.628 90.3026 328.24 89.5541 328.68C88.81 329.116 87.9251 329.334 86.8993 329.334ZM86.9125 327.155C87.3792 327.155 87.7688 327.022 88.0814 326.758C88.394 326.49 88.6295 326.124 88.788 325.662C88.9509 325.2 89.0324 324.674 89.0324 324.084C89.0324 323.494 88.9509 322.968 88.788 322.505C88.6295 322.043 88.394 321.678 88.0814 321.409C87.7688 321.14 87.3792 321.006 86.9125 321.006C86.4414 321.006 86.0451 321.14 85.7237 321.409C85.4067 321.678 85.1668 322.043 85.0039 322.505C84.8454 322.968 84.7662 323.494 84.7662 324.084C84.7662 324.674 84.8454 325.2 85.0039 325.662C85.1668 326.124 85.4067 326.49 85.7237 326.758C86.0451 327.022 86.4414 327.155 86.9125 327.155ZM85.8888 317.684L87.2889 314.679H89.8909L87.8767 317.684H85.8888ZM98.2913 333.151C97.3799 333.151 96.5984 333.026 95.9468 332.775C95.2996 332.528 94.7845 332.191 94.4015 331.764C94.0184 331.337 93.7697 330.857 93.6552 330.324L96.2572 329.974C96.3365 330.177 96.4619 330.366 96.6337 330.542C96.8054 330.719 97.0321 330.859 97.3139 330.965C97.6 331.075 97.9479 331.13 98.3573 331.13C98.9693 331.13 99.4734 330.98 99.8696 330.681C100.27 330.386 100.471 329.891 100.471 329.195V327.339H100.352C100.228 327.621 100.044 327.888 99.797 328.139C99.5504 328.389 99.2334 328.594 98.846 328.753C98.4586 328.911 97.9963 328.99 97.4592 328.99C96.6975 328.99 96.0041 328.814 95.3789 328.462C94.7581 328.106 94.2628 327.562 93.893 326.831C93.5275 326.096 93.3448 325.167 93.3448 324.044C93.3448 322.895 93.5319 321.935 93.9062 321.165C94.2804 320.394 94.7779 319.817 95.3987 319.434C96.0239 319.051 96.7085 318.86 97.4526 318.86C98.0205 318.86 98.496 318.957 98.879 319.15C99.2621 319.34 99.5703 319.577 99.8036 319.864C100.041 320.145 100.224 320.423 100.352 320.696H100.457V318.992H103.251V329.235C103.251 330.098 103.04 330.82 102.617 331.401C102.194 331.982 101.609 332.418 100.86 332.709C100.116 333.004 99.2599 333.151 98.2913 333.151ZM98.3507 326.877C98.8042 326.877 99.1872 326.765 99.4998 326.54C99.8168 326.311 100.059 325.986 100.226 325.563C100.398 325.136 100.484 324.625 100.484 324.031C100.484 323.436 100.4 322.921 100.233 322.485C100.066 322.045 99.8234 321.704 99.5064 321.462C99.1894 321.22 98.8042 321.099 98.3507 321.099C97.8884 321.099 97.4988 321.224 97.1818 321.475C96.8648 321.722 96.6248 322.065 96.4619 322.505C96.299 322.946 96.2176 323.454 96.2176 324.031C96.2176 324.616 96.299 325.123 96.4619 325.55C96.6292 325.972 96.8692 326.3 97.1818 326.534C97.4988 326.763 97.8884 326.877 98.3507 326.877ZM105.49 329.136V318.992H108.303V329.136H105.49ZM106.903 317.684C106.485 317.684 106.126 317.546 105.827 317.268C105.532 316.986 105.384 316.65 105.384 316.258C105.384 315.87 105.532 315.538 105.827 315.261C106.126 314.979 106.485 314.838 106.903 314.838C107.321 314.838 107.678 314.979 107.973 315.261C108.272 315.538 108.422 315.87 108.422 316.258C108.422 316.65 108.272 316.986 107.973 317.268C107.678 317.546 107.321 317.684 106.903 317.684ZM115.14 329.334C114.101 329.334 113.207 329.114 112.459 328.673C111.715 328.229 111.142 327.612 110.742 326.824C110.345 326.036 110.147 325.129 110.147 324.103C110.147 323.064 110.348 322.153 110.748 321.369C111.153 320.581 111.728 319.967 112.472 319.527C113.216 319.082 114.101 318.86 115.127 318.86C116.012 318.86 116.786 319.021 117.451 319.342C118.116 319.663 118.642 320.115 119.03 320.696C119.417 321.277 119.631 321.959 119.67 322.743H117.015C116.941 322.237 116.742 321.829 116.421 321.521C116.104 321.209 115.688 321.052 115.173 321.052C114.737 321.052 114.356 321.171 114.03 321.409C113.709 321.642 113.458 321.984 113.278 322.433C113.097 322.882 113.007 323.425 113.007 324.064C113.007 324.711 113.095 325.261 113.271 325.715C113.451 326.168 113.705 326.514 114.03 326.752C114.356 326.989 114.737 327.108 115.173 327.108C115.494 327.108 115.783 327.042 116.038 326.91C116.298 326.778 116.511 326.587 116.679 326.336C116.85 326.08 116.963 325.774 117.015 325.418H119.67C119.626 326.193 119.415 326.875 119.036 327.465C118.662 328.05 118.145 328.508 117.484 328.839C116.824 329.169 116.042 329.334 115.14 329.334ZM126.055 329.334C125.029 329.334 124.142 329.116 123.393 328.68C122.649 328.24 122.075 327.628 121.67 326.844C121.265 326.056 121.062 325.142 121.062 324.103C121.062 323.056 121.265 322.14 121.67 321.356C122.075 320.568 122.649 319.956 123.393 319.52C124.142 319.08 125.029 318.86 126.055 318.86C127.081 318.86 127.966 319.08 128.71 319.52C129.458 319.956 130.035 320.568 130.44 321.356C130.845 322.14 131.047 323.056 131.047 324.103C131.047 325.142 130.845 326.056 130.44 326.844C130.035 327.628 129.458 328.24 128.71 328.68C127.966 329.116 127.081 329.334 126.055 329.334ZM126.068 327.155C126.535 327.155 126.924 327.022 127.237 326.758C127.549 326.49 127.785 326.124 127.943 325.662C128.106 325.2 128.188 324.674 128.188 324.084C128.188 323.494 128.106 322.968 127.943 322.505C127.785 322.043 127.549 321.678 127.237 321.409C126.924 321.14 126.535 321.006 126.068 321.006C125.597 321.006 125.201 321.14 124.879 321.409C124.562 321.678 124.322 322.043 124.159 322.505C124.001 322.968 123.922 323.494 123.922 324.084C123.922 324.674 124.001 325.2 124.159 325.662C124.322 326.124 124.562 326.49 124.879 326.758C125.201 327.022 125.597 327.155 126.068 327.155Z" fill="black"/>
</g>
<g style="mix-blend-mode:multiply">
<circle cx="288.127" cy="273.212" r="144.127" fill="#A2C7DE" fill-opacity="0.6"/>
<path d="M301.61 292.736H298.718C298.665 292.362 298.557 292.029 298.394 291.739C298.231 291.444 298.022 291.193 297.767 290.986C297.511 290.779 297.216 290.62 296.882 290.51C296.551 290.4 296.193 290.345 295.805 290.345C295.105 290.345 294.495 290.519 293.976 290.867C293.456 291.21 293.053 291.712 292.767 292.373C292.481 293.029 292.338 293.826 292.338 294.763C292.338 295.728 292.481 296.538 292.767 297.194C293.058 297.85 293.463 298.345 293.982 298.68C294.502 299.014 295.103 299.181 295.785 299.181C296.168 299.181 296.523 299.131 296.849 299.03C297.179 298.928 297.472 298.781 297.727 298.587C297.982 298.389 298.194 298.149 298.361 297.867C298.533 297.585 298.652 297.264 298.718 296.903L301.61 296.916C301.535 297.537 301.348 298.136 301.049 298.713C300.754 299.285 300.355 299.798 299.853 300.251C299.356 300.7 298.762 301.057 298.07 301.321C297.384 301.581 296.606 301.711 295.739 301.711C294.533 301.711 293.454 301.438 292.503 300.892C291.557 300.346 290.808 299.556 290.258 298.521C289.712 297.486 289.439 296.234 289.439 294.763C289.439 293.288 289.716 292.034 290.271 290.999C290.826 289.964 291.579 289.176 292.53 288.635C293.481 288.089 294.55 287.816 295.739 287.816C296.523 287.816 297.249 287.926 297.918 288.146C298.592 288.366 299.189 288.688 299.708 289.11C300.228 289.529 300.65 290.041 300.976 290.649C301.306 291.257 301.518 291.952 301.61 292.736ZM308.191 301.724C307.165 301.724 306.278 301.506 305.53 301.07C304.786 300.63 304.211 300.018 303.806 299.234C303.401 298.446 303.198 297.533 303.198 296.494C303.198 295.446 303.401 294.53 303.806 293.746C304.211 292.958 304.786 292.346 305.53 291.91C306.278 291.47 307.165 291.25 308.191 291.25C309.217 291.25 310.102 291.47 310.846 291.91C311.594 292.346 312.171 292.958 312.576 293.746C312.981 294.53 313.184 295.446 313.184 296.494C313.184 297.533 312.981 298.446 312.576 299.234C312.171 300.018 311.594 300.63 310.846 301.07C310.102 301.506 309.217 301.724 308.191 301.724ZM308.204 299.545C308.671 299.545 309.061 299.413 309.373 299.148C309.686 298.88 309.921 298.514 310.08 298.052C310.243 297.59 310.324 297.064 310.324 296.474C310.324 295.884 310.243 295.358 310.08 294.895C309.921 294.433 309.686 294.068 309.373 293.799C309.061 293.531 308.671 293.396 308.204 293.396C307.733 293.396 307.337 293.531 307.016 293.799C306.699 294.068 306.459 294.433 306.296 294.895C306.137 295.358 306.058 295.884 306.058 296.474C306.058 297.064 306.137 297.59 306.296 298.052C306.459 298.514 306.699 298.88 307.016 299.148C307.337 299.413 307.733 299.545 308.204 299.545ZM317.826 295.661V301.526H315.013V291.382H317.694V293.172H317.813C318.038 292.582 318.414 292.115 318.943 291.772C319.471 291.424 320.111 291.25 320.864 291.25C321.569 291.25 322.183 291.404 322.707 291.712C323.231 292.02 323.638 292.461 323.929 293.033C324.219 293.601 324.364 294.279 324.364 295.067V301.526H321.551V295.569C321.556 294.948 321.397 294.464 321.076 294.116C320.754 293.764 320.312 293.588 319.748 293.588C319.37 293.588 319.035 293.669 318.744 293.832C318.458 293.995 318.234 294.233 318.071 294.545C317.912 294.854 317.831 295.226 317.826 295.661ZM329.395 295.661V301.526H326.582V288.001H329.316V293.172H329.435C329.664 292.573 330.033 292.104 330.544 291.765C331.055 291.422 331.695 291.25 332.466 291.25C333.17 291.25 333.785 291.404 334.308 291.712C334.837 292.016 335.246 292.454 335.537 293.026C335.832 293.594 335.977 294.275 335.973 295.067V301.526H333.159V295.569C333.164 294.944 333.005 294.457 332.684 294.11C332.367 293.762 331.922 293.588 331.35 293.588C330.967 293.588 330.628 293.669 330.333 293.832C330.042 293.995 329.813 294.233 329.646 294.545C329.483 294.854 329.399 295.226 329.395 295.661ZM342.81 301.724C341.766 301.724 340.868 301.513 340.115 301.09C339.367 300.663 338.79 300.06 338.385 299.28C337.98 298.497 337.777 297.57 337.777 296.5C337.777 295.457 337.98 294.541 338.385 293.753C338.79 292.965 339.36 292.351 340.095 291.91C340.835 291.47 341.702 291.25 342.697 291.25C343.367 291.25 343.989 291.358 344.566 291.574C345.147 291.785 345.654 292.104 346.085 292.531C346.521 292.958 346.86 293.495 347.102 294.143C347.344 294.785 347.465 295.538 347.465 296.401V297.174H338.9V295.43H344.817C344.817 295.025 344.729 294.666 344.553 294.354C344.377 294.041 344.133 293.797 343.82 293.621C343.512 293.44 343.153 293.35 342.744 293.35C342.316 293.35 341.938 293.449 341.608 293.647C341.282 293.841 341.026 294.103 340.842 294.433C340.657 294.759 340.562 295.122 340.558 295.523V297.18C340.558 297.682 340.65 298.116 340.835 298.481C341.024 298.847 341.291 299.129 341.634 299.327C341.977 299.525 342.385 299.624 342.856 299.624C343.168 299.624 343.455 299.58 343.714 299.492C343.974 299.404 344.196 299.272 344.381 299.096C344.566 298.919 344.707 298.704 344.804 298.448L347.406 298.62C347.274 299.245 347.003 299.791 346.594 300.258C346.189 300.72 345.665 301.081 345.022 301.341C344.384 301.596 343.646 301.724 342.81 301.724ZM353.885 301.724C352.846 301.724 351.952 301.504 351.203 301.064C350.459 300.619 349.887 300.003 349.486 299.214C349.09 298.426 348.892 297.519 348.892 296.494C348.892 295.455 349.092 294.543 349.493 293.76C349.898 292.971 350.472 292.357 351.217 291.917C351.961 291.472 352.846 291.25 353.871 291.25C354.756 291.25 355.531 291.411 356.196 291.732C356.861 292.053 357.387 292.505 357.774 293.086C358.162 293.667 358.375 294.349 358.415 295.133H355.76C355.685 294.627 355.487 294.22 355.166 293.911C354.849 293.599 354.433 293.443 353.918 293.443C353.482 293.443 353.101 293.561 352.775 293.799C352.454 294.032 352.203 294.374 352.022 294.823C351.842 295.272 351.751 295.816 351.751 296.454C351.751 297.101 351.84 297.651 352.016 298.105C352.196 298.558 352.449 298.904 352.775 299.142C353.101 299.38 353.482 299.498 353.918 299.498C354.239 299.498 354.527 299.432 354.783 299.3C355.042 299.168 355.256 298.977 355.423 298.726C355.595 298.47 355.707 298.164 355.76 297.808H358.415C358.371 298.583 358.16 299.265 357.781 299.855C357.407 300.441 356.889 300.898 356.229 301.229C355.569 301.559 354.787 301.724 353.885 301.724ZM360.216 301.526V291.382H363.03V301.526H360.216ZM361.629 290.074C361.211 290.074 360.852 289.936 360.553 289.658C360.258 289.377 360.111 289.04 360.111 288.648C360.111 288.261 360.258 287.928 360.553 287.651C360.852 287.369 361.211 287.228 361.629 287.228C362.048 287.228 362.404 287.369 362.699 287.651C362.999 287.928 363.148 288.261 363.148 288.648C363.148 289.04 362.999 289.377 362.699 289.658C362.404 289.936 362.048 290.074 361.629 290.074ZM365.283 301.526V291.382H367.964V293.172H368.083C368.295 292.577 368.647 292.108 369.14 291.765C369.633 291.422 370.223 291.25 370.91 291.25C371.605 291.25 372.198 291.424 372.686 291.772C373.175 292.115 373.501 292.582 373.664 293.172H373.769C373.976 292.591 374.351 292.126 374.892 291.778C375.438 291.426 376.083 291.25 376.827 291.25C377.774 291.25 378.542 291.552 379.132 292.155C379.726 292.753 380.023 293.603 380.023 294.704V301.526H377.217V295.259C377.217 294.695 377.067 294.272 376.768 293.991C376.468 293.709 376.094 293.568 375.645 293.568C375.134 293.568 374.736 293.731 374.45 294.057C374.163 294.378 374.02 294.803 374.02 295.331V301.526H371.293V295.199C371.293 294.702 371.15 294.305 370.864 294.01C370.582 293.715 370.21 293.568 369.748 293.568C369.435 293.568 369.153 293.647 368.902 293.806C368.656 293.96 368.46 294.178 368.314 294.46C368.169 294.737 368.097 295.063 368.097 295.437V301.526H365.283ZM386.869 301.724C385.825 301.724 384.927 301.513 384.174 301.09C383.426 300.663 382.849 300.06 382.444 299.28C382.039 298.497 381.836 297.57 381.836 296.5C381.836 295.457 382.039 294.541 382.444 293.753C382.849 292.965 383.419 292.351 384.154 291.91C384.894 291.47 385.761 291.25 386.756 291.25C387.425 291.25 388.048 291.358 388.625 291.574C389.206 291.785 389.713 292.104 390.144 292.531C390.58 292.958 390.919 293.495 391.161 294.143C391.403 294.785 391.524 295.538 391.524 296.401V297.174H382.959V295.43H388.876C388.876 295.025 388.788 294.666 388.612 294.354C388.436 294.041 388.192 293.797 387.879 293.621C387.571 293.44 387.212 293.35 386.803 293.35C386.375 293.35 385.997 293.449 385.667 293.647C385.341 293.841 385.085 294.103 384.901 294.433C384.716 294.759 384.621 295.122 384.617 295.523V297.18C384.617 297.682 384.709 298.116 384.894 298.481C385.083 298.847 385.35 299.129 385.693 299.327C386.036 299.525 386.444 299.624 386.915 299.624C387.227 299.624 387.514 299.58 387.773 299.492C388.033 299.404 388.255 299.272 388.44 299.096C388.625 298.919 388.766 298.704 388.863 298.448L391.465 298.62C391.333 299.245 391.062 299.791 390.653 300.258C390.248 300.72 389.724 301.081 389.081 301.341C388.443 301.596 387.705 301.724 386.869 301.724ZM396.174 295.661V301.526H393.36V291.382H396.042V293.172H396.16C396.385 292.582 396.761 292.115 397.29 291.772C397.818 291.424 398.459 291.25 399.212 291.25C399.916 291.25 400.53 291.404 401.054 291.712C401.578 292.02 401.985 292.461 402.276 293.033C402.566 293.601 402.712 294.279 402.712 295.067V301.526H399.898V295.569C399.903 294.948 399.744 294.464 399.423 294.116C399.101 293.764 398.659 293.588 398.095 293.588C397.717 293.588 397.382 293.669 397.092 293.832C396.805 293.995 396.581 294.233 396.418 294.545C396.26 294.854 396.178 295.226 396.174 295.661ZM410.325 291.382V293.495H404.216V291.382H410.325ZM405.603 288.952H408.416V298.409C408.416 298.669 408.456 298.871 408.535 299.016C408.614 299.157 408.724 299.256 408.865 299.314C409.01 299.371 409.178 299.399 409.367 299.399C409.499 299.399 409.631 299.388 409.763 299.366C409.895 299.34 409.997 299.32 410.067 299.307L410.509 301.4C410.369 301.444 410.17 301.495 409.915 301.552C409.66 301.614 409.349 301.651 408.984 301.665C408.306 301.691 407.712 301.601 407.201 301.394C406.694 301.187 406.3 300.865 406.019 300.43C405.737 299.994 405.598 299.443 405.603 298.779V288.952ZM416.631 301.724C415.606 301.724 414.718 301.506 413.97 301.07C413.226 300.63 412.651 300.018 412.246 299.234C411.841 298.446 411.639 297.533 411.639 296.494C411.639 295.446 411.841 294.53 412.246 293.746C412.651 292.958 413.226 292.346 413.97 291.91C414.718 291.47 415.606 291.25 416.631 291.25C417.657 291.25 418.542 291.47 419.286 291.91C420.035 292.346 420.611 292.958 421.016 293.746C421.422 294.53 421.624 295.446 421.624 296.494C421.624 297.533 421.422 298.446 421.016 299.234C420.611 300.018 420.035 300.63 419.286 301.07C418.542 301.506 417.657 301.724 416.631 301.724ZM416.645 299.545C417.111 299.545 417.501 299.413 417.814 299.148C418.126 298.88 418.362 298.514 418.52 298.052C418.683 297.59 418.765 297.064 418.765 296.474C418.765 295.884 418.683 295.358 418.52 294.895C418.362 294.433 418.126 294.068 417.814 293.799C417.501 293.531 417.111 293.396 416.645 293.396C416.174 293.396 415.777 293.531 415.456 293.799C415.139 294.068 414.899 294.433 414.736 294.895C414.578 295.358 414.498 295.884 414.498 296.474C414.498 297.064 414.578 297.59 414.736 298.052C414.899 298.514 415.139 298.88 415.456 299.148C415.777 299.413 416.174 299.545 416.645 299.545ZM302.437 313.358V311.001H313.545V313.358H309.405V324.526H306.578V313.358H302.437ZM318.474 324.724C317.43 324.724 316.532 324.513 315.779 324.09C315.031 323.663 314.454 323.06 314.049 322.28C313.644 321.497 313.441 320.57 313.441 319.5C313.441 318.457 313.644 317.541 314.049 316.753C314.454 315.965 315.024 315.351 315.759 314.91C316.499 314.47 317.366 314.25 318.361 314.25C319.031 314.25 319.654 314.358 320.23 314.574C320.811 314.785 321.318 315.104 321.749 315.531C322.185 315.958 322.524 316.495 322.766 317.143C323.008 317.785 323.129 318.538 323.129 319.401V320.174H314.564V318.43H320.481C320.481 318.025 320.393 317.666 320.217 317.354C320.041 317.041 319.797 316.797 319.484 316.621C319.176 316.44 318.817 316.35 318.408 316.35C317.981 316.35 317.602 316.449 317.272 316.647C316.946 316.841 316.691 317.103 316.506 317.433C316.321 317.759 316.226 318.122 316.222 318.523V320.18C316.222 320.682 316.314 321.116 316.499 321.481C316.688 321.847 316.955 322.129 317.298 322.327C317.642 322.525 318.049 322.624 318.52 322.624C318.832 322.624 319.119 322.58 319.378 322.492C319.638 322.404 319.86 322.272 320.045 322.096C320.23 321.919 320.371 321.704 320.468 321.448L323.07 321.62C322.938 322.245 322.667 322.791 322.258 323.258C321.853 323.72 321.329 324.081 320.686 324.341C320.048 324.596 319.31 324.724 318.474 324.724ZM329.549 324.724C328.51 324.724 327.616 324.504 326.867 324.064C326.123 323.619 325.551 323.003 325.15 322.214C324.754 321.426 324.556 320.519 324.556 319.494C324.556 318.455 324.756 317.543 325.157 316.76C325.562 315.971 326.137 315.357 326.881 314.917C327.625 314.472 328.51 314.25 329.535 314.25C330.42 314.25 331.195 314.411 331.86 314.732C332.525 315.053 333.051 315.505 333.438 316.086C333.826 316.667 334.039 317.349 334.079 318.133H331.424C331.349 317.627 331.151 317.22 330.83 316.911C330.513 316.599 330.097 316.443 329.582 316.443C329.146 316.443 328.765 316.561 328.439 316.799C328.118 317.032 327.867 317.374 327.686 317.823C327.506 318.272 327.416 318.816 327.416 319.454C327.416 320.101 327.504 320.651 327.68 321.105C327.86 321.558 328.113 321.904 328.439 322.142C328.765 322.38 329.146 322.498 329.582 322.498C329.903 322.498 330.191 322.432 330.447 322.3C330.707 322.168 330.92 321.977 331.087 321.726C331.259 321.47 331.371 321.164 331.424 320.808H334.079C334.035 321.583 333.824 322.265 333.445 322.855C333.071 323.441 332.553 323.898 331.893 324.229C331.233 324.559 330.451 324.724 329.549 324.724ZM338.694 318.661V324.526H335.88V314.382H338.562V316.172H338.68C338.905 315.582 339.281 315.115 339.81 314.772C340.338 314.424 340.979 314.25 341.731 314.25C342.436 314.25 343.05 314.404 343.574 314.712C344.098 315.02 344.505 315.461 344.796 316.033C345.086 316.601 345.232 317.279 345.232 318.067V324.526H342.418V318.569C342.423 317.948 342.264 317.464 341.943 317.116C341.621 316.764 341.179 316.588 340.615 316.588C340.237 316.588 339.902 316.669 339.612 316.832C339.325 316.995 339.101 317.233 338.938 317.545C338.779 317.854 338.698 318.226 338.694 318.661ZM352.032 324.724C351.006 324.724 350.119 324.506 349.371 324.07C348.627 323.63 348.052 323.018 347.647 322.234C347.242 321.446 347.039 320.533 347.039 319.494C347.039 318.446 347.242 317.53 347.647 316.746C348.052 315.958 348.627 315.346 349.371 314.91C350.119 314.47 351.006 314.25 352.032 314.25C353.058 314.25 353.943 314.47 354.687 314.91C355.435 315.346 356.012 315.958 356.417 316.746C356.822 317.53 357.025 318.446 357.025 319.494C357.025 320.533 356.822 321.446 356.417 322.234C356.012 323.018 355.435 323.63 354.687 324.07C353.943 324.506 353.058 324.724 352.032 324.724ZM352.045 322.545C352.512 322.545 352.902 322.413 353.214 322.148C353.527 321.88 353.762 321.514 353.921 321.052C354.084 320.59 354.165 320.064 354.165 319.474C354.165 318.884 354.084 318.358 353.921 317.895C353.762 317.433 353.527 317.068 353.214 316.799C352.902 316.531 352.512 316.396 352.045 316.396C351.574 316.396 351.178 316.531 350.857 316.799C350.54 317.068 350.3 317.433 350.137 317.895C349.978 318.358 349.899 318.884 349.899 319.474C349.899 320.064 349.978 320.59 350.137 321.052C350.3 321.514 350.54 321.88 350.857 322.148C351.178 322.413 351.574 322.545 352.045 322.545ZM361.667 311.001V324.526H358.854V311.001H361.667ZM368.504 324.724C367.478 324.724 366.591 324.506 365.843 324.07C365.099 323.63 364.524 323.018 364.119 322.234C363.714 321.446 363.512 320.533 363.512 319.494C363.512 318.446 363.714 317.53 364.119 316.746C364.524 315.958 365.099 315.346 365.843 314.91C366.591 314.47 367.478 314.25 368.504 314.25C369.53 314.25 370.415 314.47 371.159 314.91C371.908 315.346 372.484 315.958 372.889 316.746C373.294 317.53 373.497 318.446 373.497 319.494C373.497 320.533 373.294 321.446 372.889 322.234C372.484 323.018 371.908 323.63 371.159 324.07C370.415 324.506 369.53 324.724 368.504 324.724ZM368.518 322.545C368.984 322.545 369.374 322.413 369.686 322.148C369.999 321.88 370.235 321.514 370.393 321.052C370.556 320.59 370.637 320.064 370.637 319.474C370.637 318.884 370.556 318.358 370.393 317.895C370.235 317.433 369.999 317.068 369.686 316.799C369.374 316.531 368.984 316.396 368.518 316.396C368.046 316.396 367.65 316.531 367.329 316.799C367.012 317.068 366.772 317.433 366.609 317.895C366.45 318.358 366.371 318.884 366.371 319.474C366.371 320.064 366.45 320.59 366.609 321.052C366.772 321.514 367.012 321.88 367.329 322.148C367.65 322.413 368.046 322.545 368.518 322.545ZM367.494 313.074L368.894 310.07H371.496L369.482 313.074H367.494ZM379.896 328.541C378.985 328.541 378.203 328.416 377.552 328.165C376.905 327.918 376.39 327.581 376.007 327.154C375.623 326.727 375.375 326.247 375.26 325.715L377.862 325.365C377.942 325.567 378.067 325.756 378.239 325.933C378.41 326.109 378.637 326.25 378.919 326.355C379.205 326.465 379.553 326.52 379.962 326.52C380.574 326.52 381.078 326.371 381.475 326.071C381.875 325.776 382.076 325.281 382.076 324.585V322.73H381.957C381.834 323.011 381.649 323.278 381.402 323.529C381.155 323.78 380.838 323.984 380.451 324.143C380.064 324.301 379.601 324.381 379.064 324.381C378.303 324.381 377.609 324.204 376.984 323.852C376.363 323.496 375.868 322.952 375.498 322.221C375.133 321.486 374.95 320.557 374.95 319.434C374.95 318.285 375.137 317.325 375.511 316.555C375.885 315.784 376.383 315.208 377.004 314.825C377.629 314.441 378.314 314.25 379.058 314.25C379.626 314.25 380.101 314.347 380.484 314.541C380.867 314.73 381.175 314.968 381.409 315.254C381.646 315.536 381.829 315.813 381.957 316.086H382.062V314.382H384.856V324.625C384.856 325.488 384.645 326.21 384.222 326.791C383.799 327.372 383.214 327.808 382.465 328.099C381.721 328.394 380.865 328.541 379.896 328.541ZM379.956 322.267C380.409 322.267 380.792 322.155 381.105 321.93C381.422 321.702 381.664 321.376 381.831 320.953C382.003 320.526 382.089 320.015 382.089 319.421C382.089 318.827 382.005 318.311 381.838 317.876C381.671 317.435 381.428 317.094 381.111 316.852C380.794 316.61 380.409 316.489 379.956 316.489C379.493 316.489 379.104 316.614 378.787 316.865C378.47 317.112 378.23 317.455 378.067 317.895C377.904 318.336 377.823 318.844 377.823 319.421C377.823 320.007 377.904 320.513 378.067 320.94C378.234 321.363 378.474 321.691 378.787 321.924C379.104 322.153 379.493 322.267 379.956 322.267ZM387.095 324.526V314.382H389.908V324.526H387.095ZM388.508 313.074C388.09 313.074 387.731 312.936 387.432 312.658C387.137 312.377 386.989 312.04 386.989 311.648C386.989 311.261 387.137 310.928 387.432 310.651C387.731 310.369 388.09 310.228 388.508 310.228C388.926 310.228 389.283 310.369 389.578 310.651C389.877 310.928 390.027 311.261 390.027 311.648C390.027 312.04 389.877 312.377 389.578 312.658C389.283 312.936 388.926 313.074 388.508 313.074ZM396.745 324.724C395.706 324.724 394.812 324.504 394.064 324.064C393.32 323.619 392.747 323.003 392.347 322.214C391.95 321.426 391.752 320.519 391.752 319.494C391.752 318.455 391.953 317.543 392.353 316.76C392.758 315.971 393.333 315.357 394.077 314.917C394.821 314.472 395.706 314.25 396.732 314.25C397.617 314.25 398.392 314.411 399.056 314.732C399.721 315.053 400.247 315.505 400.635 316.086C401.022 316.667 401.236 317.349 401.275 318.133H398.62C398.546 317.627 398.348 317.22 398.026 316.911C397.709 316.599 397.293 316.443 396.778 316.443C396.342 316.443 395.961 316.561 395.635 316.799C395.314 317.032 395.063 317.374 394.883 317.823C394.702 318.272 394.612 318.816 394.612 319.454C394.612 320.101 394.7 320.651 394.876 321.105C395.056 321.558 395.31 321.904 395.635 322.142C395.961 322.38 396.342 322.498 396.778 322.498C397.099 322.498 397.388 322.432 397.643 322.3C397.903 322.168 398.116 321.977 398.284 321.726C398.455 321.47 398.568 321.164 398.62 320.808H401.275C401.231 321.583 401.02 322.265 400.641 322.855C400.267 323.441 399.75 323.898 399.089 324.229C398.429 324.559 397.647 324.724 396.745 324.724ZM407.66 324.724C406.634 324.724 405.747 324.506 404.998 324.07C404.254 323.63 403.68 323.018 403.275 322.234C402.87 321.446 402.667 320.533 402.667 319.494C402.667 318.446 402.87 317.53 403.275 316.746C403.68 315.958 404.254 315.346 404.998 314.91C405.747 314.47 406.634 314.25 407.66 314.25C408.686 314.25 409.571 314.47 410.315 314.91C411.063 315.346 411.64 315.958 412.045 316.746C412.45 317.53 412.652 318.446 412.652 319.494C412.652 320.533 412.45 321.446 412.045 322.234C411.64 323.018 411.063 323.63 410.315 324.07C409.571 324.506 408.686 324.724 407.66 324.724ZM407.673 322.545C408.14 322.545 408.529 322.413 408.842 322.148C409.154 321.88 409.39 321.514 409.549 321.052C409.711 320.59 409.793 320.064 409.793 319.474C409.793 318.884 409.711 318.358 409.549 317.895C409.39 317.433 409.154 317.068 408.842 316.799C408.529 316.531 408.14 316.396 407.673 316.396C407.202 316.396 406.806 316.531 406.484 316.799C406.167 317.068 405.927 317.433 405.764 317.895C405.606 318.358 405.527 318.884 405.527 319.474C405.527 320.064 405.606 320.59 405.764 321.052C405.927 321.514 406.167 321.88 406.484 322.148C406.806 322.413 407.202 322.545 407.673 322.545Z" fill="black"/>
</g>
<path d="M491.5 183L492.561 181.939L492.121 181.5H491.5V183ZM288 183L303 191.66V174.34L288 183ZM551.561 240.939L492.561 181.939L490.439 184.061L549.439 243.061L551.561 240.939ZM491.5 181.5H301.5V184.5H491.5V181.5Z" fill="black"/>
<path d="M479.285 269.656H475.552C475.484 269.173 475.344 268.744 475.134 268.369C474.924 267.989 474.654 267.665 474.325 267.398C473.995 267.131 473.614 266.926 473.183 266.784C472.756 266.642 472.293 266.571 471.793 266.571C470.89 266.571 470.103 266.795 469.433 267.244C468.762 267.687 468.242 268.335 467.873 269.188C467.504 270.034 467.319 271.062 467.319 272.273C467.319 273.517 467.504 274.562 467.873 275.409C468.248 276.256 468.771 276.895 469.441 277.327C470.112 277.759 470.887 277.974 471.768 277.974C472.262 277.974 472.719 277.909 473.14 277.778C473.566 277.648 473.944 277.457 474.273 277.207C474.603 276.952 474.876 276.642 475.092 276.278C475.313 275.915 475.467 275.5 475.552 275.034L479.285 275.051C479.188 275.852 478.947 276.625 478.56 277.369C478.18 278.108 477.665 278.77 477.018 279.355C476.376 279.935 475.609 280.395 474.717 280.736C473.83 281.071 472.827 281.239 471.708 281.239C470.151 281.239 468.759 280.886 467.532 280.182C466.31 279.477 465.344 278.457 464.634 277.122C463.93 275.787 463.577 274.17 463.577 272.273C463.577 270.369 463.935 268.75 464.651 267.415C465.367 266.08 466.339 265.062 467.566 264.364C468.793 263.659 470.174 263.307 471.708 263.307C472.719 263.307 473.657 263.449 474.521 263.733C475.39 264.017 476.16 264.432 476.83 264.977C477.501 265.517 478.046 266.179 478.467 266.963C478.893 267.747 479.165 268.645 479.285 269.656ZM487.778 281.256C486.454 281.256 485.309 280.974 484.343 280.412C483.383 279.844 482.641 279.054 482.119 278.043C481.596 277.026 481.335 275.847 481.335 274.506C481.335 273.153 481.596 271.972 482.119 270.96C482.641 269.943 483.383 269.153 484.343 268.591C485.309 268.023 486.454 267.739 487.778 267.739C489.102 267.739 490.244 268.023 491.204 268.591C492.17 269.153 492.914 269.943 493.437 270.96C493.96 271.972 494.221 273.153 494.221 274.506C494.221 275.847 493.96 277.026 493.437 278.043C492.914 279.054 492.17 279.844 491.204 280.412C490.244 280.974 489.102 281.256 487.778 281.256ZM487.795 278.443C488.397 278.443 488.9 278.273 489.303 277.932C489.707 277.585 490.011 277.114 490.215 276.517C490.425 275.92 490.531 275.241 490.531 274.48C490.531 273.719 490.425 273.04 490.215 272.443C490.011 271.847 489.707 271.375 489.303 271.028C488.9 270.682 488.397 270.509 487.795 270.509C487.187 270.509 486.675 270.682 486.261 271.028C485.852 271.375 485.542 271.847 485.332 272.443C485.127 273.04 485.025 273.719 485.025 274.48C485.025 275.241 485.127 275.92 485.332 276.517C485.542 277.114 485.852 277.585 486.261 277.932C486.675 278.273 487.187 278.443 487.795 278.443ZM500.212 273.432V281H496.582V267.909H500.042V270.219H500.195C500.485 269.457 500.971 268.855 501.653 268.412C502.335 267.963 503.161 267.739 504.133 267.739C505.042 267.739 505.835 267.938 506.511 268.335C507.187 268.733 507.712 269.301 508.087 270.04C508.462 270.773 508.65 271.648 508.65 272.665V281H505.019V273.312C505.025 272.511 504.82 271.886 504.406 271.438C503.991 270.983 503.42 270.756 502.692 270.756C502.204 270.756 501.772 270.861 501.397 271.071C501.028 271.281 500.738 271.588 500.528 271.991C500.323 272.389 500.218 272.869 500.212 273.432ZM515.142 273.432V281H511.511V263.545H515.04V270.219H515.193C515.489 269.446 515.966 268.841 516.625 268.403C517.284 267.96 518.111 267.739 519.105 267.739C520.014 267.739 520.807 267.938 521.483 268.335C522.165 268.727 522.693 269.293 523.068 270.031C523.449 270.764 523.636 271.642 523.631 272.665V281H520V273.312C520.006 272.506 519.801 271.878 519.386 271.429C518.977 270.98 518.403 270.756 517.665 270.756C517.17 270.756 516.733 270.861 516.352 271.071C515.977 271.281 515.682 271.588 515.466 271.991C515.256 272.389 515.148 272.869 515.142 273.432ZM532.454 281.256C531.107 281.256 529.948 280.983 528.977 280.438C528.011 279.886 527.266 279.108 526.744 278.102C526.221 277.091 525.96 275.895 525.96 274.514C525.96 273.168 526.221 271.986 526.744 270.969C527.266 269.952 528.002 269.159 528.951 268.591C529.906 268.023 531.025 267.739 532.309 267.739C533.173 267.739 533.977 267.878 534.721 268.156C535.471 268.429 536.124 268.841 536.681 269.392C537.244 269.943 537.681 270.636 537.994 271.472C538.306 272.301 538.462 273.273 538.462 274.386V275.384H527.408V273.134H535.045C535.045 272.611 534.931 272.148 534.704 271.744C534.477 271.341 534.161 271.026 533.758 270.798C533.36 270.565 532.897 270.449 532.369 270.449C531.817 270.449 531.329 270.577 530.903 270.832C530.482 271.082 530.153 271.42 529.914 271.847C529.675 272.267 529.553 272.736 529.548 273.253V275.392C529.548 276.04 529.667 276.599 529.906 277.071C530.15 277.543 530.494 277.906 530.937 278.162C531.38 278.418 531.906 278.545 532.513 278.545C532.917 278.545 533.286 278.489 533.621 278.375C533.957 278.261 534.244 278.091 534.482 277.864C534.721 277.636 534.903 277.358 535.028 277.028L538.386 277.25C538.215 278.057 537.866 278.761 537.337 279.364C536.815 279.96 536.138 280.426 535.309 280.761C534.485 281.091 533.533 281.256 532.454 281.256ZM546.746 281.256C545.406 281.256 544.252 280.972 543.286 280.403C542.326 279.83 541.587 279.034 541.07 278.017C540.559 277 540.303 275.83 540.303 274.506C540.303 273.165 540.562 271.989 541.079 270.977C541.602 269.96 542.343 269.168 543.303 268.599C544.263 268.026 545.406 267.739 546.729 267.739C547.871 267.739 548.871 267.946 549.729 268.361C550.587 268.776 551.266 269.358 551.766 270.108C552.266 270.858 552.542 271.739 552.593 272.75H549.167C549.07 272.097 548.815 271.571 548.4 271.173C547.991 270.77 547.454 270.568 546.789 270.568C546.227 270.568 545.735 270.722 545.315 271.028C544.9 271.33 544.576 271.77 544.343 272.349C544.11 272.929 543.994 273.631 543.994 274.455C543.994 275.29 544.107 276 544.335 276.585C544.567 277.17 544.894 277.616 545.315 277.923C545.735 278.23 546.227 278.384 546.789 278.384C547.204 278.384 547.576 278.298 547.906 278.128C548.241 277.957 548.516 277.71 548.732 277.386C548.954 277.057 549.099 276.662 549.167 276.202H552.593C552.536 277.202 552.263 278.082 551.775 278.844C551.292 279.599 550.624 280.19 549.772 280.616C548.92 281.043 547.911 281.256 546.746 281.256ZM554.918 281V267.909H558.548V281H554.918ZM556.741 266.222C556.202 266.222 555.739 266.043 555.352 265.685C554.972 265.321 554.781 264.886 554.781 264.381C554.781 263.881 554.972 263.452 555.352 263.094C555.739 262.73 556.202 262.548 556.741 262.548C557.281 262.548 557.741 262.73 558.122 263.094C558.509 263.452 558.702 263.881 558.702 264.381C558.702 264.886 558.509 265.321 558.122 265.685C557.741 266.043 557.281 266.222 556.741 266.222ZM561.457 281V267.909H564.917V270.219H565.07C565.343 269.452 565.798 268.847 566.434 268.403C567.07 267.96 567.832 267.739 568.718 267.739C569.616 267.739 570.38 267.963 571.011 268.412C571.641 268.855 572.062 269.457 572.272 270.219H572.408C572.675 269.469 573.158 268.869 573.857 268.42C574.562 267.966 575.394 267.739 576.354 267.739C577.576 267.739 578.567 268.128 579.329 268.906C580.096 269.679 580.479 270.776 580.479 272.196V281H576.857V272.912C576.857 272.185 576.664 271.639 576.278 271.276C575.891 270.912 575.408 270.73 574.829 270.73C574.17 270.73 573.656 270.94 573.286 271.361C572.917 271.776 572.732 272.324 572.732 273.006V281H569.212V272.835C569.212 272.193 569.028 271.682 568.658 271.301C568.295 270.92 567.815 270.73 567.218 270.73C566.815 270.73 566.451 270.832 566.127 271.037C565.809 271.236 565.556 271.517 565.369 271.881C565.181 272.239 565.087 272.659 565.087 273.142V281H561.457ZM589.313 281.256C587.967 281.256 586.808 280.983 585.836 280.438C584.87 279.886 584.126 279.108 583.603 278.102C583.08 277.091 582.819 275.895 582.819 274.514C582.819 273.168 583.08 271.986 583.603 270.969C584.126 269.952 584.862 269.159 585.81 268.591C586.765 268.023 587.884 267.739 589.168 267.739C590.032 267.739 590.836 267.878 591.58 268.156C592.33 268.429 592.984 268.841 593.54 269.392C594.103 269.943 594.54 270.636 594.853 271.472C595.165 272.301 595.322 273.273 595.322 274.386V275.384H584.268V273.134H591.904C591.904 272.611 591.79 272.148 591.563 271.744C591.336 271.341 591.021 271.026 590.617 270.798C590.219 270.565 589.756 270.449 589.228 270.449C588.677 270.449 588.188 270.577 587.762 270.832C587.342 271.082 587.012 271.42 586.773 271.847C586.535 272.267 586.413 272.736 586.407 273.253V275.392C586.407 276.04 586.526 276.599 586.765 277.071C587.009 277.543 587.353 277.906 587.796 278.162C588.239 278.418 588.765 278.545 589.373 278.545C589.776 278.545 590.146 278.489 590.481 278.375C590.816 278.261 591.103 278.091 591.342 277.864C591.58 277.636 591.762 277.358 591.887 277.028L595.245 277.25C595.075 278.057 594.725 278.761 594.197 279.364C593.674 279.96 592.998 280.426 592.168 280.761C591.344 281.091 590.393 281.256 589.313 281.256ZM601.322 273.432V281H597.691V267.909H601.151V270.219H601.305C601.594 269.457 602.08 268.855 602.762 268.412C603.444 267.963 604.271 267.739 605.242 267.739C606.151 267.739 606.944 267.938 607.62 268.335C608.296 268.733 608.822 269.301 609.197 270.04C609.572 270.773 609.759 271.648 609.759 272.665V281H606.129V273.312C606.134 272.511 605.93 271.886 605.515 271.438C605.1 270.983 604.529 270.756 603.802 270.756C603.313 270.756 602.881 270.861 602.506 271.071C602.137 271.281 601.847 271.588 601.637 271.991C601.433 272.389 601.327 272.869 601.322 273.432ZM619.584 267.909V270.636H611.7V267.909H619.584ZM613.49 264.773H617.121V276.977C617.121 277.312 617.172 277.574 617.274 277.761C617.376 277.943 617.518 278.071 617.7 278.145C617.888 278.219 618.104 278.256 618.348 278.256C618.518 278.256 618.689 278.241 618.859 278.213C619.03 278.179 619.161 278.153 619.251 278.136L619.822 280.838C619.641 280.895 619.385 280.96 619.055 281.034C618.726 281.114 618.325 281.162 617.854 281.179C616.979 281.213 616.212 281.097 615.553 280.83C614.899 280.562 614.391 280.148 614.027 279.585C613.663 279.023 613.484 278.312 613.49 277.455V264.773ZM627.723 281.256C626.399 281.256 625.254 280.974 624.288 280.412C623.328 279.844 622.587 279.054 622.064 278.043C621.541 277.026 621.28 275.847 621.28 274.506C621.28 273.153 621.541 271.972 622.064 270.96C622.587 269.943 623.328 269.153 624.288 268.591C625.254 268.023 626.399 267.739 627.723 267.739C629.047 267.739 630.189 268.023 631.149 268.591C632.115 269.153 632.859 269.943 633.382 270.96C633.905 271.972 634.166 273.153 634.166 274.506C634.166 275.847 633.905 277.026 633.382 278.043C632.859 279.054 632.115 279.844 631.149 280.412C630.189 280.974 629.047 281.256 627.723 281.256ZM627.74 278.443C628.342 278.443 628.845 278.273 629.249 277.932C629.652 277.585 629.956 277.114 630.161 276.517C630.371 275.92 630.476 275.241 630.476 274.48C630.476 273.719 630.371 273.04 630.161 272.443C629.956 271.847 629.652 271.375 629.249 271.028C628.845 270.682 628.342 270.509 627.74 270.509C627.132 270.509 626.621 270.682 626.206 271.028C625.797 271.375 625.487 271.847 625.277 272.443C625.072 273.04 624.97 273.719 624.97 274.48C624.97 275.241 625.072 275.92 625.277 276.517C625.487 277.114 625.797 277.585 626.206 277.932C626.621 278.273 627.132 278.443 627.74 278.443ZM477.575 295.588V292.545H491.91V295.588H486.566V310H482.919V295.588H477.575ZM498.27 310.256C496.924 310.256 495.765 309.983 494.793 309.438C493.827 308.886 493.083 308.108 492.56 307.102C492.037 306.091 491.776 304.895 491.776 303.514C491.776 302.168 492.037 300.986 492.56 299.969C493.083 298.952 493.819 298.159 494.767 297.591C495.722 297.023 496.841 296.739 498.125 296.739C498.989 296.739 499.793 296.878 500.537 297.156C501.287 297.429 501.941 297.841 502.498 298.392C503.06 298.943 503.498 299.636 503.81 300.472C504.123 301.301 504.279 302.273 504.279 303.386V304.384H493.225V302.134H500.861C500.861 301.611 500.748 301.148 500.52 300.744C500.293 300.341 499.978 300.026 499.574 299.798C499.176 299.565 498.713 299.449 498.185 299.449C497.634 299.449 497.145 299.577 496.719 299.832C496.299 300.082 495.969 300.42 495.73 300.847C495.492 301.267 495.37 301.736 495.364 302.253V304.392C495.364 305.04 495.483 305.599 495.722 306.071C495.966 306.543 496.31 306.906 496.753 307.162C497.196 307.418 497.722 307.545 498.33 307.545C498.733 307.545 499.103 307.489 499.438 307.375C499.773 307.261 500.06 307.091 500.299 306.864C500.537 306.636 500.719 306.358 500.844 306.028L504.202 306.25C504.032 307.057 503.682 307.761 503.154 308.364C502.631 308.96 501.955 309.426 501.125 309.761C500.301 310.091 499.35 310.256 498.27 310.256ZM512.563 310.256C511.222 310.256 510.069 309.972 509.103 309.403C508.142 308.83 507.404 308.034 506.887 307.017C506.375 306 506.12 304.83 506.12 303.506C506.12 302.165 506.378 300.989 506.895 299.977C507.418 298.96 508.159 298.168 509.12 297.599C510.08 297.026 511.222 296.739 512.546 296.739C513.688 296.739 514.688 296.946 515.546 297.361C516.404 297.776 517.083 298.358 517.583 299.108C518.083 299.858 518.358 300.739 518.409 301.75H514.983C514.887 301.097 514.631 300.571 514.216 300.173C513.807 299.77 513.27 299.568 512.605 299.568C512.043 299.568 511.551 299.722 511.131 300.028C510.716 300.33 510.392 300.77 510.159 301.349C509.926 301.929 509.81 302.631 509.81 303.455C509.81 304.29 509.924 305 510.151 305.585C510.384 306.17 510.711 306.616 511.131 306.923C511.551 307.23 512.043 307.384 512.605 307.384C513.02 307.384 513.392 307.298 513.722 307.128C514.057 306.957 514.333 306.71 514.549 306.386C514.77 306.057 514.915 305.662 514.983 305.202H518.409C518.353 306.202 518.08 307.082 517.591 307.844C517.108 308.599 516.441 309.19 515.588 309.616C514.736 310.043 513.728 310.256 512.563 310.256ZM524.365 302.432V310H520.734V296.909H524.194V299.219H524.348C524.637 298.457 525.123 297.855 525.805 297.412C526.487 296.963 527.314 296.739 528.285 296.739C529.194 296.739 529.987 296.938 530.663 297.335C531.339 297.733 531.865 298.301 532.24 299.04C532.615 299.773 532.802 300.648 532.802 301.665V310H529.172V302.312C529.177 301.511 528.973 300.886 528.558 300.438C528.143 299.983 527.572 299.756 526.845 299.756C526.356 299.756 525.924 299.861 525.549 300.071C525.18 300.281 524.89 300.588 524.68 300.991C524.475 301.389 524.37 301.869 524.365 302.432ZM541.578 310.256C540.255 310.256 539.11 309.974 538.144 309.412C537.184 308.844 536.442 308.054 535.919 307.043C535.397 306.026 535.135 304.847 535.135 303.506C535.135 302.153 535.397 300.972 535.919 299.96C536.442 298.943 537.184 298.153 538.144 297.591C539.11 297.023 540.255 296.739 541.578 296.739C542.902 296.739 544.044 297.023 545.005 297.591C545.971 298.153 546.715 298.943 547.238 299.96C547.76 300.972 548.022 302.153 548.022 303.506C548.022 304.847 547.76 306.026 547.238 307.043C546.715 308.054 545.971 308.844 545.005 309.412C544.044 309.974 542.902 310.256 541.578 310.256ZM541.596 307.443C542.198 307.443 542.701 307.273 543.104 306.932C543.507 306.585 543.811 306.114 544.016 305.517C544.226 304.92 544.331 304.241 544.331 303.48C544.331 302.719 544.226 302.04 544.016 301.443C543.811 300.847 543.507 300.375 543.104 300.028C542.701 299.682 542.198 299.509 541.596 299.509C540.988 299.509 540.476 299.682 540.061 300.028C539.652 300.375 539.343 300.847 539.132 301.443C538.928 302.04 538.826 302.719 538.826 303.48C538.826 304.241 538.928 304.92 539.132 305.517C539.343 306.114 539.652 306.585 540.061 306.932C540.476 307.273 540.988 307.443 541.596 307.443ZM554.013 292.545V310H550.382V292.545H554.013ZM562.836 310.256C561.512 310.256 560.368 309.974 559.402 309.412C558.441 308.844 557.7 308.054 557.177 307.043C556.654 306.026 556.393 304.847 556.393 303.506C556.393 302.153 556.654 300.972 557.177 299.96C557.7 298.943 558.441 298.153 559.402 297.591C560.368 297.023 561.512 296.739 562.836 296.739C564.16 296.739 565.302 297.023 566.262 297.591C567.228 298.153 567.973 298.943 568.495 299.96C569.018 300.972 569.279 302.153 569.279 303.506C569.279 304.847 569.018 306.026 568.495 307.043C567.973 308.054 567.228 308.844 566.262 309.412C565.302 309.974 564.16 310.256 562.836 310.256ZM562.853 307.443C563.456 307.443 563.958 307.273 564.362 306.932C564.765 306.585 565.069 306.114 565.274 305.517C565.484 304.92 565.589 304.241 565.589 303.48C565.589 302.719 565.484 302.04 565.274 301.443C565.069 300.847 564.765 300.375 564.362 300.028C563.958 299.682 563.456 299.509 562.853 299.509C562.245 299.509 561.734 299.682 561.319 300.028C560.91 300.375 560.6 300.847 560.39 301.443C560.186 302.04 560.083 302.719 560.083 303.48C560.083 304.241 560.186 304.92 560.39 305.517C560.6 306.114 560.91 306.585 561.319 306.932C561.734 307.273 562.245 307.443 562.853 307.443ZM561.532 295.222L563.339 291.344H566.697L564.098 295.222H561.532ZM577.538 315.182C576.362 315.182 575.353 315.02 574.512 314.696C573.677 314.378 573.012 313.943 572.518 313.392C572.024 312.841 571.703 312.222 571.555 311.534L574.913 311.082C575.015 311.344 575.177 311.588 575.399 311.815C575.62 312.043 575.913 312.224 576.277 312.361C576.646 312.503 577.095 312.574 577.623 312.574C578.413 312.574 579.064 312.381 579.575 311.994C580.092 311.614 580.35 310.974 580.35 310.077V307.682H580.197C580.038 308.045 579.799 308.389 579.481 308.713C579.163 309.037 578.754 309.301 578.254 309.506C577.754 309.71 577.157 309.812 576.464 309.812C575.481 309.812 574.586 309.585 573.779 309.131C572.978 308.67 572.339 307.969 571.862 307.026C571.39 306.077 571.154 304.878 571.154 303.429C571.154 301.946 571.396 300.707 571.879 299.713C572.362 298.719 573.004 297.974 573.805 297.48C574.612 296.986 575.495 296.739 576.456 296.739C577.189 296.739 577.802 296.864 578.297 297.114C578.791 297.358 579.189 297.665 579.49 298.034C579.797 298.398 580.032 298.756 580.197 299.108H580.333V296.909H583.939V310.128C583.939 311.241 583.666 312.173 583.12 312.923C582.575 313.673 581.819 314.236 580.853 314.611C579.893 314.991 578.788 315.182 577.538 315.182ZM577.615 307.085C578.2 307.085 578.694 306.94 579.098 306.651C579.507 306.355 579.819 305.935 580.035 305.389C580.257 304.838 580.368 304.179 580.368 303.412C580.368 302.645 580.26 301.98 580.044 301.418C579.828 300.849 579.515 300.409 579.106 300.097C578.697 299.784 578.2 299.628 577.615 299.628C577.018 299.628 576.515 299.79 576.106 300.114C575.697 300.432 575.387 300.875 575.177 301.443C574.967 302.011 574.862 302.668 574.862 303.412C574.862 304.168 574.967 304.821 575.177 305.372C575.393 305.918 575.703 306.341 576.106 306.642C576.515 306.937 577.018 307.085 577.615 307.085ZM586.828 310V296.909H590.458V310H586.828ZM588.652 295.222C588.112 295.222 587.649 295.043 587.262 294.685C586.882 294.321 586.691 293.886 586.691 293.381C586.691 292.881 586.882 292.452 587.262 292.094C587.649 291.73 588.112 291.548 588.652 291.548C589.191 291.548 589.652 291.73 590.032 292.094C590.419 292.452 590.612 292.881 590.612 293.381C590.612 293.886 590.419 294.321 590.032 294.685C589.652 295.043 589.191 295.222 588.652 295.222ZM599.282 310.256C597.941 310.256 596.787 309.972 595.821 309.403C594.861 308.83 594.123 308.034 593.605 307.017C593.094 306 592.838 304.83 592.838 303.506C592.838 302.165 593.097 300.989 593.614 299.977C594.137 298.96 594.878 298.168 595.838 297.599C596.799 297.026 597.941 296.739 599.265 296.739C600.407 296.739 601.407 296.946 602.265 297.361C603.123 297.776 603.801 298.358 604.301 299.108C604.801 299.858 605.077 300.739 605.128 301.75H601.702C601.605 301.097 601.35 300.571 600.935 300.173C600.526 299.77 599.989 299.568 599.324 299.568C598.762 299.568 598.27 299.722 597.85 300.028C597.435 300.33 597.111 300.77 596.878 301.349C596.645 301.929 596.529 302.631 596.529 303.455C596.529 304.29 596.642 305 596.87 305.585C597.103 306.17 597.429 306.616 597.85 306.923C598.27 307.23 598.762 307.384 599.324 307.384C599.739 307.384 600.111 307.298 600.441 307.128C600.776 306.957 601.051 306.71 601.267 306.386C601.489 306.057 601.634 305.662 601.702 305.202H605.128C605.071 306.202 604.799 307.082 604.31 307.844C603.827 308.599 603.159 309.19 602.307 309.616C601.455 310.043 600.446 310.256 599.282 310.256ZM613.368 310.256C612.044 310.256 610.899 309.974 609.933 309.412C608.973 308.844 608.231 308.054 607.708 307.043C607.186 306.026 606.924 304.847 606.924 303.506C606.924 302.153 607.186 300.972 607.708 299.96C608.231 298.943 608.973 298.153 609.933 297.591C610.899 297.023 612.044 296.739 613.368 296.739C614.691 296.739 615.833 297.023 616.794 297.591C617.76 298.153 618.504 298.943 619.027 299.96C619.549 300.972 619.811 302.153 619.811 303.506C619.811 304.847 619.549 306.026 619.027 307.043C618.504 308.054 617.76 308.844 616.794 309.412C615.833 309.974 614.691 310.256 613.368 310.256ZM613.385 307.443C613.987 307.443 614.49 307.273 614.893 306.932C615.297 306.585 615.6 306.114 615.805 305.517C616.015 304.92 616.12 304.241 616.12 303.48C616.12 302.719 616.015 302.04 615.805 301.443C615.6 300.847 615.297 300.375 614.893 300.028C614.49 299.682 613.987 299.509 613.385 299.509C612.777 299.509 612.265 299.682 611.85 300.028C611.441 300.375 611.132 300.847 610.922 301.443C610.717 302.04 610.615 302.719 610.615 303.48C610.615 304.241 610.717 304.92 610.922 305.517C611.132 306.114 611.441 306.585 611.85 306.932C612.265 307.273 612.777 307.443 613.385 307.443ZM481.941 339.213C480.946 339.213 480.046 338.957 479.239 338.446C478.438 337.929 477.801 337.17 477.33 336.17C476.864 335.165 476.631 333.932 476.631 332.472C476.631 330.972 476.873 329.724 477.355 328.73C477.838 327.73 478.48 326.983 479.282 326.489C480.088 325.989 480.972 325.739 481.932 325.739C482.665 325.739 483.276 325.864 483.765 326.114C484.259 326.358 484.657 326.665 484.958 327.034C485.265 327.398 485.498 327.756 485.657 328.108H485.767V321.545H489.39V339H485.81V336.903H485.657C485.486 337.267 485.245 337.628 484.932 337.986C484.625 338.338 484.225 338.631 483.73 338.864C483.242 339.097 482.645 339.213 481.941 339.213ZM483.091 336.324C483.676 336.324 484.171 336.165 484.574 335.847C484.983 335.523 485.296 335.071 485.512 334.491C485.733 333.912 485.844 333.233 485.844 332.455C485.844 331.676 485.736 331 485.52 330.426C485.304 329.852 484.992 329.409 484.583 329.097C484.174 328.784 483.676 328.628 483.091 328.628C482.495 328.628 481.992 328.79 481.583 329.114C481.174 329.437 480.864 329.886 480.654 330.46C480.444 331.034 480.338 331.699 480.338 332.455C480.338 333.216 480.444 333.889 480.654 334.474C480.87 335.054 481.179 335.509 481.583 335.838C481.992 336.162 482.495 336.324 483.091 336.324ZM498.289 339.256C496.966 339.256 495.821 338.974 494.855 338.412C493.895 337.844 493.153 337.054 492.63 336.043C492.108 335.026 491.846 333.847 491.846 332.506C491.846 331.153 492.108 329.972 492.63 328.96C493.153 327.943 493.895 327.153 494.855 326.591C495.821 326.023 496.966 325.739 498.289 325.739C499.613 325.739 500.755 326.023 501.716 326.591C502.681 327.153 503.426 327.943 503.949 328.96C504.471 329.972 504.733 331.153 504.733 332.506C504.733 333.847 504.471 335.026 503.949 336.043C503.426 337.054 502.681 337.844 501.716 338.412C500.755 338.974 499.613 339.256 498.289 339.256ZM498.306 336.443C498.909 336.443 499.412 336.273 499.815 335.932C500.218 335.585 500.522 335.114 500.727 334.517C500.937 333.92 501.042 333.241 501.042 332.48C501.042 331.719 500.937 331.04 500.727 330.443C500.522 329.847 500.218 329.375 499.815 329.028C499.412 328.682 498.909 328.509 498.306 328.509C497.699 328.509 497.187 328.682 496.772 329.028C496.363 329.375 496.054 329.847 495.843 330.443C495.639 331.04 495.537 331.719 495.537 332.48C495.537 333.241 495.639 333.92 495.843 334.517C496.054 335.114 496.363 335.585 496.772 335.932C497.187 336.273 497.699 336.443 498.306 336.443ZM528.117 327.656H524.384C524.316 327.173 524.176 326.744 523.966 326.369C523.756 325.989 523.486 325.665 523.157 325.398C522.827 325.131 522.446 324.926 522.015 324.784C521.588 324.642 521.125 324.571 520.625 324.571C519.722 324.571 518.935 324.795 518.265 325.244C517.594 325.687 517.074 326.335 516.705 327.188C516.336 328.034 516.151 329.062 516.151 330.273C516.151 331.517 516.336 332.562 516.705 333.409C517.08 334.256 517.603 334.895 518.273 335.327C518.944 335.759 519.719 335.974 520.6 335.974C521.094 335.974 521.551 335.909 521.972 335.778C522.398 335.648 522.776 335.457 523.105 335.207C523.435 334.952 523.708 334.642 523.924 334.278C524.145 333.915 524.299 333.5 524.384 333.034L528.117 333.051C528.02 333.852 527.779 334.625 527.392 335.369C527.012 336.108 526.498 336.77 525.85 337.355C525.208 337.935 524.441 338.395 523.549 338.736C522.662 339.071 521.659 339.239 520.54 339.239C518.983 339.239 517.591 338.886 516.364 338.182C515.142 337.477 514.176 336.457 513.466 335.122C512.762 333.787 512.409 332.17 512.409 330.273C512.409 328.369 512.767 326.75 513.483 325.415C514.199 324.08 515.171 323.062 516.398 322.364C517.625 321.659 519.006 321.307 520.54 321.307C521.551 321.307 522.489 321.449 523.353 321.733C524.222 322.017 524.992 322.432 525.662 322.977C526.333 323.517 526.878 324.179 527.299 324.963C527.725 325.747 527.998 326.645 528.117 327.656ZM536.61 339.256C535.286 339.256 534.141 338.974 533.175 338.412C532.215 337.844 531.473 337.054 530.951 336.043C530.428 335.026 530.167 333.847 530.167 332.506C530.167 331.153 530.428 329.972 530.951 328.96C531.473 327.943 532.215 327.153 533.175 326.591C534.141 326.023 535.286 325.739 536.61 325.739C537.934 325.739 539.076 326.023 540.036 326.591C541.002 327.153 541.746 327.943 542.269 328.96C542.792 329.972 543.053 331.153 543.053 332.506C543.053 333.847 542.792 335.026 542.269 336.043C541.746 337.054 541.002 337.844 540.036 338.412C539.076 338.974 537.934 339.256 536.61 339.256ZM536.627 336.443C537.229 336.443 537.732 336.273 538.135 335.932C538.539 335.585 538.843 335.114 539.047 334.517C539.257 333.92 539.363 333.241 539.363 332.48C539.363 331.719 539.257 331.04 539.047 330.443C538.843 329.847 538.539 329.375 538.135 329.028C537.732 328.682 537.229 328.509 536.627 328.509C536.019 328.509 535.507 328.682 535.093 329.028C534.684 329.375 534.374 329.847 534.164 330.443C533.959 331.04 533.857 331.719 533.857 332.48C533.857 333.241 533.959 333.92 534.164 334.517C534.374 335.114 534.684 335.585 535.093 335.932C535.507 336.273 536.019 336.443 536.627 336.443ZM549.044 331.432V339H545.414V325.909H548.874V328.219H549.027C549.317 327.457 549.803 326.855 550.485 326.412C551.167 325.963 551.993 325.739 552.965 325.739C553.874 325.739 554.667 325.938 555.343 326.335C556.019 326.733 556.544 327.301 556.919 328.04C557.294 328.773 557.482 329.648 557.482 330.665V339H553.851V331.312C553.857 330.511 553.652 329.886 553.238 329.438C552.823 328.983 552.252 328.756 551.525 328.756C551.036 328.756 550.604 328.861 550.229 329.071C549.86 329.281 549.57 329.588 549.36 329.991C549.155 330.389 549.05 330.869 549.044 331.432ZM567.306 325.909V328.636H559.423V325.909H567.306ZM561.213 322.773H564.843V334.977C564.843 335.312 564.895 335.574 564.997 335.761C565.099 335.943 565.241 336.071 565.423 336.145C565.61 336.219 565.826 336.256 566.071 336.256C566.241 336.256 566.412 336.241 566.582 336.213C566.752 336.179 566.883 336.153 566.974 336.136L567.545 338.838C567.363 338.895 567.108 338.96 566.778 339.034C566.449 339.114 566.048 339.162 565.576 339.179C564.701 339.213 563.934 339.097 563.275 338.83C562.622 338.562 562.113 338.148 561.75 337.585C561.386 337.023 561.207 336.312 561.213 335.455V322.773ZM575.497 339.256C574.15 339.256 572.991 338.983 572.02 338.438C571.054 337.886 570.309 337.108 569.787 336.102C569.264 335.091 569.002 333.895 569.002 332.514C569.002 331.168 569.264 329.986 569.787 328.969C570.309 327.952 571.045 327.159 571.994 326.591C572.949 326.023 574.068 325.739 575.352 325.739C576.216 325.739 577.02 325.878 577.764 326.156C578.514 326.429 579.167 326.841 579.724 327.392C580.287 327.943 580.724 328.636 581.037 329.472C581.349 330.301 581.505 331.273 581.505 332.386V333.384H570.451V331.134H578.088C578.088 330.611 577.974 330.148 577.747 329.744C577.52 329.341 577.204 329.026 576.801 328.798C576.403 328.565 575.94 328.449 575.412 328.449C574.86 328.449 574.372 328.577 573.946 328.832C573.525 329.082 573.196 329.42 572.957 329.847C572.718 330.267 572.596 330.736 572.591 331.253V333.392C572.591 334.04 572.71 334.599 572.949 335.071C573.193 335.543 573.537 335.906 573.98 336.162C574.423 336.418 574.949 336.545 575.556 336.545C575.96 336.545 576.329 336.489 576.664 336.375C577 336.261 577.287 336.091 577.525 335.864C577.764 335.636 577.946 335.358 578.071 335.028L581.429 335.25C581.258 336.057 580.909 336.761 580.38 337.364C579.858 337.96 579.181 338.426 578.352 338.761C577.528 339.091 576.576 339.256 575.497 339.256ZM592.27 333.426V325.909H595.9V339H592.414V336.622H592.278C591.983 337.389 591.491 338.006 590.804 338.472C590.122 338.937 589.289 339.17 588.306 339.17C587.431 339.17 586.662 338.972 585.997 338.574C585.332 338.176 584.812 337.611 584.437 336.878C584.068 336.145 583.88 335.267 583.875 334.244V325.909H587.505V333.597C587.511 334.369 587.718 334.98 588.127 335.429C588.537 335.878 589.085 336.102 589.772 336.102C590.21 336.102 590.619 336.003 591 335.804C591.38 335.599 591.687 335.298 591.92 334.901C592.159 334.503 592.275 334.011 592.27 333.426ZM588.596 324.222L590.403 320.344H593.761L591.162 324.222H588.596ZM603.628 339.213C602.634 339.213 601.733 338.957 600.926 338.446C600.125 337.929 599.489 337.17 599.017 336.17C598.551 335.165 598.319 333.932 598.319 332.472C598.319 330.972 598.56 329.724 599.043 328.73C599.526 327.73 600.168 326.983 600.969 326.489C601.776 325.989 602.659 325.739 603.62 325.739C604.353 325.739 604.963 325.864 605.452 326.114C605.946 326.358 606.344 326.665 606.645 327.034C606.952 327.398 607.185 327.756 607.344 328.108H607.455V321.545H611.077V339H607.498V336.903H607.344C607.174 337.267 606.932 337.628 606.62 337.986C606.313 338.338 605.912 338.631 605.418 338.864C604.929 339.097 604.333 339.213 603.628 339.213ZM604.779 336.324C605.364 336.324 605.858 336.165 606.262 335.847C606.671 335.523 606.983 335.071 607.199 334.491C607.421 333.912 607.532 333.233 607.532 332.455C607.532 331.676 607.424 331 607.208 330.426C606.992 329.852 606.679 329.409 606.27 329.097C605.861 328.784 605.364 328.628 604.779 328.628C604.182 328.628 603.679 328.79 603.27 329.114C602.861 329.437 602.551 329.886 602.341 330.46C602.131 331.034 602.026 331.699 602.026 332.455C602.026 333.216 602.131 333.889 602.341 334.474C602.557 335.054 602.867 335.509 603.27 335.838C603.679 336.162 604.182 336.324 604.779 336.324ZM619.977 339.256C618.653 339.256 617.508 338.974 616.542 338.412C615.582 337.844 614.841 337.054 614.318 336.043C613.795 335.026 613.534 333.847 613.534 332.506C613.534 331.153 613.795 329.972 614.318 328.96C614.841 327.943 615.582 327.153 616.542 326.591C617.508 326.023 618.653 325.739 619.977 325.739C621.301 325.739 622.443 326.023 623.403 326.591C624.369 327.153 625.113 327.943 625.636 328.96C626.159 329.972 626.42 331.153 626.42 332.506C626.42 333.847 626.159 335.026 625.636 336.043C625.113 337.054 624.369 337.844 623.403 338.412C622.443 338.974 621.301 339.256 619.977 339.256ZM619.994 336.443C620.596 336.443 621.099 336.273 621.502 335.932C621.906 335.585 622.21 335.114 622.414 334.517C622.625 333.92 622.73 333.241 622.73 332.48C622.73 331.719 622.625 331.04 622.414 330.443C622.21 329.847 621.906 329.375 621.502 329.028C621.099 328.682 620.596 328.509 619.994 328.509C619.386 328.509 618.875 328.682 618.46 329.028C618.051 329.375 617.741 329.847 617.531 330.443C617.326 331.04 617.224 331.719 617.224 332.48C617.224 333.241 617.326 333.92 617.531 334.517C617.741 335.114 618.051 335.585 618.46 335.932C618.875 336.273 619.386 336.443 619.994 336.443Z" fill="black"/>
</svg>
